<svg width="121" height="98" viewBox="0 0 121 98" fill="none" xmlns="http://www.w3.org/2000/svg">
<path fill-rule="evenodd" clip-rule="evenodd" d="M6.35787 6.35787C10.1086 2.60714 15.1957 0.5 20.5 0.5H90.5C95.8043 0.5 100.891 2.60714 104.642 6.35787C108.393 10.1086 110.5 15.1957 110.5 20.5V67.1667C110.5 72.471 108.393 77.5581 104.642 81.3088C100.891 85.0595 95.8043 87.1667 90.5 87.1667H20.5C15.1957 87.1667 10.1086 85.0595 6.35787 81.3088C2.60714 77.5581 0.5 72.471 0.5 67.1667V20.5C0.5 15.1957 2.60714 10.1086 6.35787 6.35787ZM5.5 34.6667V67.1667C5.5 71.1449 7.08035 74.9602 9.8934 77.7733C12.7064 80.5863 16.5218 82.1667 20.5 82.1667H90.5C94.4782 82.1667 98.2936 80.5863 101.107 77.7733C103.92 74.9602 105.5 71.1449 105.5 67.1667V34.6667H5.5ZM105.5 29.6667H5.5V20.5C5.5 16.5218 7.08035 12.7064 9.8934 9.8934C12.7064 7.08035 16.5218 5.5 20.5 5.5H90.5C94.4782 5.5 98.2936 7.08035 101.107 9.8934C103.92 12.7064 105.5 16.5218 105.5 20.5V29.6667ZM23.8333 61.3333C23.8333 59.9526 24.9526 58.8333 26.3333 58.8333H32.1667C33.5474 58.8333 34.6667 59.9526 34.6667 61.3333C34.6667 62.714 33.5474 63.8333 32.1667 63.8333H26.3333C24.9526 63.8333 23.8333 62.714 23.8333 61.3333ZM53 61.3333C53 59.9526 54.1193 58.8333 55.5 58.8333H61.3333C62.714 58.8333 63.8333 59.9526 63.8333 61.3333C63.8333 62.714 62.714 63.8333 61.3333 63.8333H55.5C54.1193 63.8333 53 62.714 53 61.3333Z" fill="#222427"/>
<circle cx="97.5" cy="74.5" r="23.5" fill="#C40808"/>
<path d="M103.152 66.4496C103.482 66.2025 103.89 66.0825 104.301 66.1117C104.712 66.1409 105.099 66.3173 105.391 66.6086C105.682 66.8999 105.859 67.2864 105.888 67.6972C105.917 68.1081 105.797 68.5157 105.55 68.8452L98.6987 75.6897C98.3785 76.0032 97.9481 76.1789 97.4997 76.1789C97.0514 76.1789 96.6209 76.0032 96.3007 75.6897L89.4494 68.8452C89.202 68.5157 89.0819 68.1081 89.1112 67.6972C89.1404 67.2864 89.317 66.8999 89.6085 66.6086C89.9001 66.3173 90.287 66.1409 90.6983 66.1117C91.1095 66.0825 91.5175 66.2025 91.8474 66.4496L97.4997 72.0792L103.152 66.4325L103.152 66.4496Z" fill="white"/>
<path d="M91.8479 82.5508C91.5181 82.798 91.1101 82.918 90.6988 82.8888C90.2876 82.8596 89.9006 82.6831 89.6091 82.3919C89.3176 82.1006 89.141 81.7141 89.1117 81.3032C89.0825 80.8924 89.2026 80.4848 89.45 80.1553L96.3013 73.3108C96.6215 72.9972 97.0519 72.8216 97.5003 72.8216C97.9486 72.8216 98.3791 72.9972 98.6993 73.3108L105.551 80.1553C105.798 80.4848 105.918 80.8924 105.889 81.3032C105.86 81.7141 105.683 82.1006 105.391 82.3919C105.1 82.6831 104.713 82.8596 104.302 82.8888C103.89 82.918 103.482 82.798 103.153 82.5508L97.5003 76.9212L91.8479 82.568L91.8479 82.5508Z" fill="white"/>
</svg>
