<svg width="36" height="36" viewBox="0 0 36 36" fill="none" xmlns="http://www.w3.org/2000/svg">
<path d="M0 0V35.0484H35.0484V0H0ZM33.5884 1.46001V8.03141H1.46138V1.46001H33.5884ZM1.46001 33.5884V9.49278H33.587V33.5884H1.46001Z" fill="#D31217"/>
<path d="M10.9512 3.65137H13.1425V5.84138H10.9512V3.65137Z" fill="#D31217"/>
<path d="M21.9053 3.65137H24.0953V5.84138H21.9053V3.65137Z" fill="#D31217"/>
<path d="M12.5222 14.6878C12.2606 16.4642 11.4156 16.4957 9.71453 16.5573L9.4502 16.5669V17.8051H12.3319V25.9049H13.8603V14.4536H12.5551L12.5222 14.6878Z" fill="#D31217"/>
<path d="M21.1424 18.1296C20.4631 18.1296 19.7659 18.3515 19.214 18.7226L19.7344 16.0451H24.5486V14.5933H18.5949L17.4335 20.7949H18.7552L18.836 20.6689C19.2975 19.9498 20.1398 19.502 21.0356 19.502C22.4928 19.502 23.5502 20.5798 23.5502 22.0631C23.5502 23.4053 22.7079 24.764 21.0986 24.764C19.7235 24.764 18.7346 23.8354 18.6935 22.5055L18.6853 22.2398H17.1582L17.1651 22.5206C17.2144 24.6846 18.7634 26.1377 21.0219 26.1377C23.2982 26.1377 25.08 24.3956 25.08 22.1727C25.08 19.754 23.4995 18.1282 21.1465 18.1282L21.1424 18.1296Z" fill="#D31217"/>
</svg>
