<svg width="40" height="40" viewBox="0 0 40 40" fill="none" xmlns="http://www.w3.org/2000/svg">
<path d="M20 29.5001V18.1001" stroke="#D31217" stroke-width="2" stroke-linecap="round"/>
<path d="M19.9667 10.862C20.8808 10.862 21.6219 11.6031 21.6219 12.5172C21.6219 13.4313 20.8808 14.1724 19.9667 14.1724C19.0526 14.1724 18.3115 13.4313 18.3115 12.5172C18.3115 11.6031 19.0526 10.862 19.9667 10.862Z" fill="#D31217"/>
<path d="M10.5 3.54186C13.2947 1.92524 16.5393 1 20 1C30.4933 1 39 9.50658 39 20C39 30.4933 30.4933 39 20 39C9.50658 39 1 30.4933 1 20C1 16.5393 1.92524 13.2947 3.54186 10.5" stroke="#D31217" stroke-width="2" stroke-linecap="round"/>
</svg>
