<svg width="38" height="38" viewBox="0 0 38 38" fill="none" xmlns="http://www.w3.org/2000/svg">
<path d="M1 19L5 15M5 15L19 1L33 15M5 15V35C5 35.5304 5.21071 36.0391 5.58579 36.4142C5.96086 36.7893 6.46957 37 7 37H13M33 15L37 19M33 15V35C33 35.5304 32.7893 36.0391 32.4142 36.4142C32.0391 36.7893 31.5304 37 31 37H25M13 37C13.5304 37 14.0391 36.7893 14.4142 36.4142C14.7893 36.0391 15 35.5304 15 35V27C15 26.4696 15.2107 25.9609 15.5858 25.5858C15.9609 25.2107 16.4696 25 17 25H21C21.5304 25 22.0391 25.2107 22.4142 25.5858C22.7893 25.9609 23 26.4696 23 27V35C23 35.5304 23.2107 36.0391 23.5858 36.4142C23.9609 36.7893 24.4696 37 25 37M13 37H25" stroke="#E30613" stroke-width="2" stroke-linecap="round" stroke-linejoin="round"/>
</svg>
