<svg width="150" height="40" viewBox="0 0 150 40" fill="none" xmlns="http://www.w3.org/2000/svg"><path d="M20.102.0680008C9.006.0680008.0 8.922.0 19.904.0 30.848 9.006 39.74 20.102 39.74 31.236 39.74 40.242 30.848 40.242 19.904 40.242 8.922 31.236.0680008 20.102.0680008zm0 28.9179992C15.01 28.986 10.906 24.92 10.906 19.904 10.906 14.888 15.01 10.822 20.102 10.822 25.194 10.822 29.298 14.888 29.298 19.904 29.298 24.92 25.194 28.986 20.102 28.986z" fill="#222427"/><path d="M73.4706 37.878V30.278C73.4706 29.898 73.1666 29.556 72.7486 29.556H59.7906L73.3946 2.5C73.4706 2.386 73.4706 2.272 73.4706 2.158V1.36C73.4706.942001 73.1666.600002 72.7486.600002H45.3126C44.8946.600002 44.5906.942001 44.5906 1.36V8.96C44.5906 9.34 44.8946 9.682 45.3126 9.682H58.2706L44.6666 36.738C44.5906 36.852 44.5906 36.966 44.5906 37.08V37.878C44.5906 38.296 44.8946 38.6 45.3126 38.6H72.7486C73.1666 38.6 73.4706 38.296 73.4706 37.878z" fill="#222427"/><path d="M81.0341 38.6H103.378C103.758 38.6 104.1 38.296 104.1 37.878V30.316C104.1 29.898 103.758 29.556 103.378 29.556H90.9521V24.16H101.668C102.086 24.16 102.428 23.818 102.428 23.4V15.838C102.428 15.42 102.086 15.078 101.668 15.078H90.9521V9.682H103.378C103.758 9.682 104.1 9.34 104.1 8.96V1.36C104.1.942001 103.758.600002 103.378.600002H81.0341C80.6161.600002 80.3121.942001 80.3121 1.36V37.878C80.3121 38.296 80.6161 38.6 81.0341 38.6z" fill="#222427"/><path d="M129.493.0680008C118.397.0680008 109.391 8.922 109.391 19.904 109.391 30.848 118.397 39.74 129.493 39.74 140.627 39.74 149.633 30.848 149.633 19.904 149.633 8.922 140.627.0680008 129.493.0680008zm0 28.9179992C124.401 28.986 120.297 24.92 120.297 19.904 120.297 14.888 124.401 10.822 129.493 10.822 134.585 10.822 138.689 14.888 138.689 19.904 138.689 24.92 134.585 28.986 129.493 28.986z" fill="#222427"/></svg>