<svg width="285" height="40" viewBox="0 0 285 40" fill="none" xmlns="http://www.w3.org/2000/svg">
<path d="M4.07819 8.15638C6.33051 8.15638 8.15638 6.33051 8.15638 4.07819C8.15638 1.82587 6.33051 0 4.07819 0C1.82587 0 0 1.82587 0 4.07819C0 6.33051 1.82587 8.15638 4.07819 8.15638Z" fill="#D31217"/>
<path d="M39.8418 4.07819C39.8418 1.82778 41.6696 0 43.92 0C46.1684 0 47.9982 1.82877 47.9982 4.07819C47.9982 6.3286 46.1684 8.15539 43.92 8.15539C41.6686 8.15638 39.8418 6.32959 39.8418 4.07819Z" fill="#D31217"/>
<path d="M6.01758 14.3326C6.01758 12.0831 7.84733 10.2563 10.0977 10.2563C12.3462 10.2563 14.1759 12.0831 14.1759 14.3326C14.1759 16.5849 12.3462 18.4127 10.0977 18.4127C7.84733 18.4127 6.01758 16.5849 6.01758 14.3326Z" fill="#D31217"/>
<path d="M32.5195 14.3326C32.5195 12.0831 34.3463 10.2563 36.5977 10.2563C38.8471 10.2563 40.6759 12.0831 40.6759 14.3326C40.6759 16.5849 38.8462 18.4127 36.5977 18.4127C34.3463 18.4127 32.5195 16.5849 32.5195 14.3326Z" fill="#D31217"/>
<path d="M12.3447 25.109C12.3447 22.8605 14.1715 21.0308 16.4229 21.0308C18.6743 21.0308 20.5011 22.8605 20.5011 25.109C20.5011 27.3603 18.6733 29.1871 16.4229 29.1871C14.1725 29.1871 12.3447 27.3603 12.3447 25.109Z" fill="#D31217"/>
<path d="M25.5186 25.109C25.5186 22.8605 27.3453 21.0308 29.5967 21.0308C31.8481 21.0308 33.6749 22.8605 33.6749 25.109C33.6749 27.3603 31.8481 29.1871 29.5967 29.1871C27.3453 29.1871 25.5186 27.3603 25.5186 25.109Z" fill="#D31217"/>
<path d="M19.7256 35.9217C19.7256 33.6713 21.5534 31.8435 23.8008 31.8435C26.0522 31.8435 27.882 33.6713 27.882 35.9217C27.882 38.1731 26.0522 39.9999 23.8008 39.9999C21.5524 39.9999 19.7256 38.1731 19.7256 35.9217Z" fill="#D31217"/>
<path d="M31.8589 0.226074L27.7383 6.99607C28.4739 7.71197 29.4723 8.15633 30.5772 8.15633C32.8286 8.15633 34.6554 6.32953 34.6554 4.07912C34.6554 2.27899 33.4784 0.766212 31.8589 0.226074Z" fill="#D31217"/>
<path d="M13.1777 4.07801C13.1777 6.32842 15.0016 8.15521 17.253 8.15521C18.0331 8.15521 18.7549 7.92612 19.375 7.54496L15.3274 0.503418C14.0536 1.19562 13.1777 2.5277 13.1777 4.07801Z" fill="#D31217"/>
<path d="M21.2522 10.813C20.0278 11.519 19.1934 12.8225 19.1934 14.3333C19.1934 16.5856 21.0231 18.4134 23.2745 18.4134C25.5229 18.4134 27.3527 16.5856 27.3527 14.3333C27.3527 12.861 26.5598 11.5793 25.3847 10.8633L23.2745 14.3333L21.2522 10.813Z" fill="#D31217"/>
<path d="M212.1 35.7232V27.6982C209.874 28.809 207.673 29.366 205.492 29.366C203.13 29.366 201.242 28.6748 199.833 27.2923C198.422 25.9099 197.715 24.0209 197.715 21.6283C197.715 19.2248 198.422 17.324 199.833 15.9208C201.243 14.5156 203.171 13.8145 205.62 13.8145C206.801 13.8145 207.967 13.9548 209.12 14.2312C210.278 14.5077 211.27 14.8978 212.101 15.3994V7.07911C211.339 6.87965 210.562 6.72659 209.778 6.59131L205.234 11.7093L199.774 6.71869C198.439 7.05245 197.179 7.52149 196.006 8.15149C193.518 9.49245 191.596 11.3933 190.233 13.854C188.868 16.3148 188.192 19.1251 188.192 22.277C188.192 25.2088 188.799 27.7959 190.016 30.0404C191.234 32.2849 192.995 34.0189 195.3 35.2344C197.604 36.451 200.352 37.0573 203.536 37.0573C206.772 37.0573 209.63 36.6149 212.1 35.7232Z" fill="white"/>
<path d="M284.486 27.698C282.262 28.8089 280.06 29.3658 277.874 29.3658C275.516 29.3658 273.63 28.6746 272.215 27.2922C270.806 25.9097 270.103 24.0207 270.103 21.6281C270.103 19.2247 270.806 17.3238 272.215 15.9206C273.631 14.5155 275.559 13.8144 278.003 13.8144C279.181 13.8144 280.35 13.9546 281.508 14.2311C282.661 14.5076 283.652 14.8976 284.487 15.3993V7.07896C283.561 6.84099 282.618 6.65929 281.67 6.51611L277.499 11.2085L272.489 6.6277C271.026 6.96639 269.659 7.47098 268.394 8.15233C265.903 9.49329 263.977 11.3941 262.615 13.8549C261.255 16.3156 260.575 19.1259 260.575 22.2779C260.575 25.2096 261.18 27.7968 262.396 30.0412C263.615 32.2857 265.377 34.0197 267.682 35.2353C269.987 36.4518 272.736 37.0581 275.918 37.0581C279.155 37.0581 282.012 36.6157 284.488 35.7231V27.698H284.486Z" fill="white"/>
<path d="M243.173 36.537C243.296 36.5429 243.441 36.5577 243.553 36.5577C252.161 36.5577 256.461 32.1319 256.461 23.2794V6.14014H247.432V23.3781C247.432 25.4666 247.037 27.0041 246.232 27.9975C245.434 28.9908 244.233 29.4885 242.613 29.4885L232.077 29.4905H225.7V25.0914H234.725V18.0459H225.7V13.6873H235.31V6.64374H216.697V29.4885L216.691 36.538H236L243.173 36.537Z" fill="white"/>
<path d="M83.8811 36.5812H73.7696L64.1172 6.68701H73.811L78.379 25.0952C78.7374 26.5832 78.9399 27.6951 78.9823 28.4298H79.1857C79.2736 27.5016 79.4869 26.3453 79.8345 24.9668L84.2781 6.68701H93.6569L83.8811 36.5812Z" fill="white"/>
<path d="M132.572 36.5812L122.026 22.1545C121.188 21.016 120.509 19.989 119.979 19.0727H119.894C119.979 20.54 120.023 22.198 120.023 24.0287V36.5822H111.684V6.68701H120.187L130.299 20.4018C130.424 20.5835 130.577 20.7977 130.755 21.0495C130.939 21.3013 131.12 21.5581 131.296 21.8188C131.481 22.0864 131.651 22.3431 131.812 22.592C131.967 22.8447 132.089 23.0649 132.175 23.2585H132.255C132.175 22.6482 132.132 21.5897 132.132 20.0888V6.68701H140.472V36.5812H132.572Z" fill="white"/>
<path d="M174.733 21.5494C174.733 24.5522 174.09 27.2391 172.792 29.609C171.502 31.9769 169.695 33.8205 167.376 35.1328C165.052 36.4461 162.455 37.0998 159.577 37.0998C156.769 37.0998 154.212 36.4668 151.913 35.198C149.616 33.9232 147.825 32.1369 146.549 29.8371C145.268 27.5373 144.625 24.9344 144.625 22.0293C144.625 18.9849 145.273 16.2477 146.565 13.8146C147.862 11.3835 149.673 9.50241 152.01 8.17724C154.347 6.84912 157.001 6.18555 159.974 6.18555C162.836 6.18555 165.397 6.81949 167.653 8.09232C169.917 9.36515 171.659 11.1781 172.89 13.5362C174.118 15.8893 174.733 18.5623 174.733 21.5494ZM165.183 21.7982C165.183 19.3384 164.71 17.4011 163.768 15.9851C162.82 14.5631 161.527 13.8561 159.887 13.8561C158.097 13.8561 156.699 14.5374 155.696 15.9021C154.7 17.2658 154.196 19.1864 154.196 21.6748C154.196 24.1088 154.694 26.0067 155.691 27.3684C156.682 28.7282 158.033 29.4095 159.744 29.4095C160.79 29.4095 161.726 29.1044 162.557 28.4941C163.393 27.8829 164.036 27.006 164.497 25.8675C164.959 24.728 165.183 23.3722 165.183 21.7982Z" fill="white"/>
<path d="M105.817 11.9057L102.307 15.0458L99.1449 10.5183L103.407 6.68701H96.8145L96.8086 36.5812H105.817V11.9057Z" fill="white"/>
</svg>
