<svg width="512" height="512" viewBox="0 0 512 512" fill="none" xmlns="http://www.w3.org/2000/svg">
<path d="M43.5029 129.344C67.5289 129.344 87.0059 109.867 87.0059 85.8414C87.0059 61.8154 67.5289 42.3385 43.5029 42.3385C19.4769 42.3385 0 61.8154 0 85.8414C0 109.867 19.4769 129.344 43.5029 129.344Z" fill="#D31217"/>
<path d="M424.989 85.8414C424.989 61.8358 444.487 42.3385 468.492 42.3385C492.477 42.3385 511.995 61.8464 511.995 85.8414C511.995 109.847 492.477 129.334 468.492 129.334C444.476 129.344 424.989 109.858 424.989 85.8414Z" fill="#D31217"/>
<path d="M64.2026 195.227C64.2026 171.232 83.721 151.745 107.727 151.745C131.711 151.745 151.23 171.232 151.23 195.227C151.23 219.254 131.711 238.751 107.727 238.751C83.721 238.751 64.2026 219.254 64.2026 195.227Z" fill="#D31217"/>
<path d="M346.887 195.227C346.887 171.232 366.374 151.745 390.39 151.745C414.385 151.745 433.893 171.232 433.893 195.227C433.893 219.254 414.374 238.751 390.39 238.751C366.374 238.751 346.887 219.254 346.887 195.227Z" fill="#D31217"/>
<path d="M131.687 310.183C131.687 286.198 151.173 266.68 175.189 266.68C199.206 266.68 218.692 286.198 218.692 310.183C218.692 334.199 199.195 353.686 175.189 353.686C151.184 353.686 131.687 334.199 131.687 310.183Z" fill="#D31217"/>
<path d="M272.221 310.183C272.221 286.198 291.707 266.68 315.724 266.68C339.74 266.68 359.227 286.198 359.227 310.183C359.227 334.199 339.74 353.686 315.724 353.686C291.707 353.686 272.221 334.199 272.221 310.183Z" fill="#D31217"/>
<path d="M210.415 425.524C210.415 401.518 229.912 382.021 253.886 382.021C277.902 382.021 297.42 401.518 297.42 425.524C297.42 449.54 277.902 469.027 253.886 469.027C229.901 469.027 210.415 449.54 210.415 425.524Z" fill="#D31217"/>
<path d="M339.85 44.7507L295.895 116.968C303.742 124.604 314.391 129.344 326.178 129.344C350.194 129.344 369.681 109.858 369.681 85.8521C369.681 66.6497 357.125 50.5125 339.85 44.7507Z" fill="#D31217"/>
<path d="M140.574 85.8407C140.574 109.846 160.029 129.333 184.045 129.333C192.366 129.333 200.066 126.889 206.681 122.824L163.505 47.7098C149.917 55.0938 140.574 69.3033 140.574 85.8407Z" fill="#D31217"/>
<path d="M226.706 157.683C213.644 165.214 204.744 179.118 204.744 195.234C204.744 219.261 224.262 238.758 248.278 238.758C272.263 238.758 291.781 219.261 291.781 195.234C291.781 179.529 283.323 165.857 270.788 158.22L248.278 195.234L226.706 157.683Z" fill="#D31217"/>
</svg>
