<svg width="120" height="100" viewBox="0 0 120 100" fill="none" xmlns="http://www.w3.org/2000/svg">
<path d="M10.1955 20.391C15.8263 20.391 20.391 15.8263 20.391 10.1955C20.391 4.56468 15.8263 0 10.1955 0C4.56468 0 0 4.56468 0 10.1955C0 15.8263 4.56468 20.391 10.1955 20.391Z" fill="#E7E7E7"/>
<path d="M99.6045 10.1955C99.6045 4.56946 104.174 0 109.8 0C115.421 0 119.995 4.57193 119.995 10.1955C119.995 15.8215 115.421 20.3885 109.8 20.3885C104.171 20.391 99.6045 15.824 99.6045 10.1955Z" fill="#E7E7E7"/>
<path d="M15.0439 35.8317C15.0439 30.2081 19.6183 25.6411 25.2444 25.6411C30.8655 25.6411 35.4399 30.2081 35.4399 35.8317C35.4399 41.4626 30.8655 46.0321 25.2444 46.0321C19.6183 46.0321 15.0439 41.4626 15.0439 35.8317Z" fill="#E7E7E7"/>
<path d="M81.2988 35.8317C81.2988 30.2081 85.8658 25.6411 91.4943 25.6411C97.1179 25.6411 101.69 30.2081 101.69 35.8317C101.69 41.4626 97.1154 46.0321 91.4943 46.0321C85.8658 46.0321 81.2988 41.4626 81.2988 35.8317Z" fill="#E7E7E7"/>
<path d="M30.8623 62.7726C30.8623 57.1515 35.4293 52.5771 41.0578 52.5771C46.6863 52.5771 51.2533 57.1515 51.2533 62.7726C51.2533 68.4011 46.6838 72.9681 41.0578 72.9681C35.4318 72.9681 30.8623 68.4011 30.8623 62.7726Z" fill="#E7E7E7"/>
<path d="M63.7969 62.7726C63.7969 57.1515 68.3639 52.5771 73.9924 52.5771C79.6209 52.5771 84.1879 57.1515 84.1879 62.7726C84.1879 68.4011 79.6209 72.9681 73.9924 72.9681C68.3639 72.9681 63.7969 68.4011 63.7969 62.7726Z" fill="#E7E7E7"/>
<path d="M49.3145 89.8049C49.3145 84.1788 53.8839 79.6094 59.5025 79.6094C65.131 79.6094 69.7054 84.1788 69.7054 89.8049C69.7054 95.4334 65.131 100 59.5025 100C53.8814 100 49.3145 95.4334 49.3145 89.8049Z" fill="#E7E7E7"/>
<path d="M79.6473 0.56543L69.3457 17.4904C71.1848 19.2802 73.6806 20.3911 76.443 20.3911C82.0716 20.3911 86.6385 15.8241 86.6385 10.1981C86.6385 5.69774 83.6959 1.91578 79.6473 0.56543Z" fill="#E7E7E7"/>
<path d="M32.9443 10.1953C32.9443 15.8213 37.5039 20.3883 43.1324 20.3883C45.0827 20.3883 46.8872 19.8156 48.4375 18.8627L38.3186 1.25879C35.134 2.98931 32.9443 6.3195 32.9443 10.1953Z" fill="#E7E7E7"/>
<path d="M53.1305 27.0327C50.0694 28.7978 47.9834 32.0564 47.9834 35.8334C47.9834 41.4644 52.5578 46.0339 58.1863 46.0339C63.8074 46.0339 68.3818 41.4644 68.3818 35.8334C68.3818 32.1527 66.3995 28.9484 63.4618 27.1586L58.1863 35.8334L53.1305 27.0327Z" fill="#E7E7E7"/>
</svg>
