<svg width="228" height="32" viewBox="0 0 228 32" fill="none" xmlns="http://www.w3.org/2000/svg">
<path d="M3.26255 6.5251C5.06441 6.5251 6.5251 5.06441 6.5251 3.26255C6.5251 1.46069 5.06441 0 3.26255 0C1.46069 0 0 1.46069 0 3.26255C0 5.06441 1.46069 6.5251 3.26255 6.5251Z" fill="#D31217"/>
<path d="M31.8726 3.26255C31.8726 1.46222 33.3348 0 35.1351 0C36.9339 0 38.3977 1.46301 38.3977 3.26255C38.3977 5.06288 36.9339 6.52431 35.1351 6.52431C33.334 6.5251 31.8726 5.06367 31.8726 3.26255Z" fill="#D31217"/>
<path d="M4.81494 11.466C4.81494 9.66651 6.27874 8.20508 8.07907 8.20508C9.87782 8.20508 11.3416 9.66651 11.3416 11.466C11.3416 13.268 9.87782 14.7302 8.07907 14.7302C6.27874 14.7302 4.81494 13.268 4.81494 11.466Z" fill="#D31217"/>
<path d="M26.0151 11.466C26.0151 9.66651 27.4766 8.20508 29.2777 8.20508C31.0772 8.20508 32.5402 9.66651 32.5402 11.466C32.5402 13.268 31.0764 14.7302 29.2777 14.7302C27.4766 14.7302 26.0151 13.268 26.0151 11.466Z" fill="#D31217"/>
<path d="M9.87598 20.0873C9.87598 18.2885 11.3374 16.8247 13.1385 16.8247C14.9396 16.8247 16.4011 18.2885 16.4011 20.0873C16.4011 21.8884 14.9389 23.3498 13.1385 23.3498C11.3382 23.3498 9.87598 21.8884 9.87598 20.0873Z" fill="#D31217"/>
<path d="M20.4155 20.0873C20.4155 18.2885 21.877 16.8247 23.6781 16.8247C25.4792 16.8247 26.9406 18.2885 26.9406 20.0873C26.9406 21.8884 25.4792 23.3498 23.6781 23.3498C21.877 23.3498 20.4155 21.8884 20.4155 20.0873Z" fill="#D31217"/>
<path d="M15.7803 28.7374C15.7803 26.9371 17.2425 25.4749 19.0405 25.4749C20.8416 25.4749 22.3054 26.9371 22.3054 28.7374C22.3054 30.5385 20.8416 32 19.0405 32C17.2417 32 15.7803 30.5385 15.7803 28.7374Z" fill="#D31217"/>
<path d="M25.4874 0.180908L22.1909 5.5969C22.7794 6.16963 23.5781 6.52511 24.4621 6.52511C26.2632 6.52511 27.7246 5.06368 27.7246 3.26335C27.7246 1.82324 26.783 0.613019 25.4874 0.180908Z" fill="#D31217"/>
<path d="M10.5425 3.2625C10.5425 5.06283 12.0015 6.52426 13.8027 6.52426C14.4267 6.52426 15.0042 6.34099 15.5003 6.03607L12.2622 0.402832C11.2432 0.956597 10.5425 2.02226 10.5425 3.2625Z" fill="#D31217"/>
<path d="M17.0021 8.65039C16.0225 9.21521 15.355 10.258 15.355 11.4666C15.355 13.2685 16.8188 14.7307 18.6199 14.7307C20.4187 14.7307 21.8825 13.2685 21.8825 11.4666C21.8825 10.2888 21.2481 9.2634 20.3081 8.69068L18.6199 11.4666L17.0021 8.65039Z" fill="#D31217"/>
<path d="M169.681 28.5785V22.1584C167.9 23.0471 166.139 23.4927 164.394 23.4927C162.504 23.4927 160.994 22.9397 159.868 21.8338C158.739 20.7278 158.173 19.2166 158.173 17.3025C158.173 15.3798 158.739 13.8591 159.868 12.7365C160.995 11.6124 162.538 11.0515 164.497 11.0515C165.442 11.0515 166.375 11.1637 167.296 11.3849C168.223 11.6061 169.017 11.9181 169.681 12.3194V5.66319C169.072 5.50362 168.451 5.38117 167.823 5.27295L164.188 9.36733L159.82 5.37485C158.752 5.64186 157.744 6.0171 156.806 6.52109C154.815 7.59386 153.278 9.11454 152.188 11.0831C151.095 13.0517 150.555 15.3 150.555 17.8215C150.555 20.1669 151.04 22.2366 152.014 24.0322C152.988 25.8278 154.397 27.215 156.241 28.1874C158.084 29.1607 160.282 29.6457 162.83 29.6457C165.419 29.6457 167.705 29.2918 169.681 28.5785Z" fill="#020203"/>
<path d="M227.589 22.1584C225.81 23.0471 224.048 23.4927 222.3 23.4927C220.413 23.4927 218.905 22.9397 217.773 21.8337C216.645 20.7278 216.083 19.2166 216.083 17.3025C216.083 15.3797 216.645 13.859 217.773 12.7365C218.905 11.6124 220.447 11.0515 222.403 11.0515C223.345 11.0515 224.28 11.1637 225.207 11.3849C226.129 11.6061 226.922 11.9181 227.59 12.3194V5.66317C226.849 5.47279 226.095 5.32744 225.336 5.21289L222 8.9668L217.991 5.30216C216.821 5.57311 215.727 5.97679 214.715 6.52186C212.722 7.59463 211.182 9.11531 210.093 11.0839C209.004 13.0525 208.46 15.3007 208.46 17.8223C208.46 20.1677 208.945 22.2374 209.917 24.033C210.892 25.8286 212.302 27.2158 214.146 28.1882C215.99 29.1614 218.189 29.6465 220.735 29.6465C223.324 29.6465 225.61 29.2926 227.591 28.5785V22.1584H227.589Z" fill="#020203"/>
<path d="M194.538 29.2296C194.637 29.2343 194.752 29.2462 194.842 29.2462C201.729 29.2462 205.169 25.7055 205.169 18.6235V4.91211H197.945V18.7025C197.945 20.3733 197.629 21.6033 196.986 22.398C196.347 23.1927 195.386 23.5908 194.09 23.5908L185.661 23.5924H180.56V20.0731H187.78V14.4367H180.56V10.9498H188.248V5.31499H173.358V23.5908L173.353 29.2304H188.8L194.538 29.2296Z" fill="#020203"/>
<path d="M67.1056 29.265H59.0163L51.2944 5.34961H59.0495L62.7039 20.0761C62.9906 21.2666 63.1526 22.1561 63.1866 22.7438H63.3493C63.4196 22.0013 63.5902 21.0762 63.8683 19.9734L67.4231 5.34961H74.9262L67.1056 29.265Z" fill="#020203"/>
<path d="M106.058 29.265L97.6212 17.7236C96.9506 16.8128 96.4079 15.9912 95.9837 15.2581H95.9157C95.9837 16.432 96.0184 17.7584 96.0184 19.223V29.2658H89.3472V5.34961H96.1495L104.24 16.3214C104.339 16.4668 104.462 16.6382 104.605 16.8396C104.751 17.0411 104.896 17.2465 105.037 17.455C105.185 17.6691 105.321 17.8745 105.45 18.0736C105.574 18.2758 105.672 18.452 105.74 18.6068H105.804C105.741 18.1186 105.706 17.2717 105.706 16.071V5.34961H112.378V29.265H106.058Z" fill="#020203"/>
<path d="M139.787 17.2395C139.787 19.6418 139.272 21.7913 138.234 23.6872C137.202 25.5816 135.757 27.0564 133.901 28.1063C132.043 29.1569 129.965 29.6799 127.662 29.6799C125.416 29.6799 123.37 29.1735 121.531 28.1584C119.693 27.1386 118.261 25.7095 117.24 23.8697C116.215 22.0299 115.701 19.9475 115.701 17.6235C115.701 15.188 116.219 12.9982 117.253 11.0517C118.29 9.10686 119.739 7.60198 121.609 6.54184C123.479 5.47934 125.601 4.94849 127.98 4.94849C130.269 4.94849 132.318 5.45564 134.123 6.47391C135.934 7.49217 137.328 8.94254 138.313 10.829C139.295 12.7115 139.787 14.8499 139.787 17.2395ZM132.147 17.4386C132.147 15.4708 131.769 13.9209 131.015 12.7881C130.257 11.6505 129.222 11.0849 127.91 11.0849C126.478 11.0849 125.36 11.63 124.558 12.7217C123.761 13.8127 123.358 15.3492 123.358 17.3399C123.358 19.2871 123.756 20.8054 124.554 21.8948C125.346 22.9826 126.427 23.5276 127.796 23.5276C128.632 23.5276 129.381 23.2836 130.046 22.7954C130.715 22.3064 131.23 21.6049 131.598 20.694C131.968 19.7824 132.147 18.6978 132.147 17.4386Z" fill="#020203"/>
<path d="M84.6551 9.52457L81.8468 12.0367L79.3173 8.41467L82.7268 5.34961H77.453L77.4482 29.265H84.6551V9.52457Z" fill="#020203"/>
</svg>
