<svg width="207" height="27" viewBox="0 0 207 27" fill="none" xmlns="http://www.w3.org/2000/svg">
<path d="M10.7246 26.3516C7.93555 26.3516 5.58594 25.707 3.67578 24.418C1.76562 23.1172 0.623047 21.3008 0.248047 18.9688L5.69727 17.7207C5.87305 19.1152 6.42969 20.1875 7.36719 20.9375C8.31641 21.6758 9.50586 22.0449 10.9355 22.0449C12.0723 22.0449 12.998 21.7871 13.7129 21.2715C14.4277 20.7441 14.7793 19.9707 14.7676 18.9512C14.7676 18.2363 14.4688 17.6094 13.8711 17.0703C13.2734 16.5312 12.6758 16.1504 12.0781 15.9277C11.4922 15.6934 10.543 15.377 9.23047 14.9785C9.05469 14.9199 8.92578 14.8789 8.84375 14.8555C8.17578 14.6445 7.63672 14.4688 7.22656 14.3281C6.81641 14.1875 6.30664 13.9941 5.69727 13.748C5.09961 13.4902 4.60742 13.2441 4.2207 13.0098C3.8457 12.7637 3.44141 12.459 3.00781 12.0957C2.57422 11.7207 2.23438 11.3281 1.98828 10.918C1.74219 10.5078 1.53711 10.0215 1.37305 9.45898C1.20898 8.89648 1.12695 8.29297 1.12695 7.64844C1.12695 6.11328 1.51953 4.7832 2.30469 3.6582C3.10156 2.52148 4.16797 1.67188 5.50391 1.10938C6.85156 0.535156 8.38086 0.248047 10.0918 0.248047C11.252 0.248047 12.3535 0.371094 13.3965 0.617188C14.4512 0.863281 15.4414 1.24414 16.3672 1.75977C17.293 2.26367 18.0781 2.96094 18.7227 3.85156C19.3789 4.73047 19.8301 5.75586 20.0762 6.92773L14.9785 8.19336C14.5215 5.76758 12.998 4.55469 10.4082 4.55469C9.25977 4.55469 8.31641 4.80078 7.57812 5.29297C6.83984 5.78516 6.4707 6.5293 6.4707 7.52539C6.4707 8.45117 7.08594 9.20117 8.31641 9.77539C8.89062 10.0566 10.0684 10.4609 11.8496 10.9883C12.541 11.1992 13.1035 11.375 13.5371 11.5156C13.9707 11.6562 14.5156 11.8613 15.1719 12.1309C15.8281 12.4004 16.3613 12.6641 16.7715 12.9219C17.1816 13.168 17.627 13.4902 18.1074 13.8887C18.5879 14.2871 18.9629 14.709 19.2324 15.1543C19.5137 15.5996 19.748 16.127 19.9355 16.7363C20.123 17.334 20.2168 17.9844 20.2168 18.6875C20.2168 19.7422 20.0469 20.6973 19.707 21.5527C19.3672 22.4082 18.8984 23.1289 18.3008 23.7148C17.7148 24.3008 17.0176 24.7988 16.209 25.209C15.4004 25.6074 14.5391 25.8945 13.625 26.0703C12.7109 26.2578 11.7441 26.3516 10.7246 26.3516Z" fill="white"/>
<path d="M41.1172 0.599609H46.3906V26H41.1172V15.5586H30.377V26H25.1035V0.599609H30.377V10.9707H41.1172V0.599609Z" fill="white"/>
<path d="M64.2324 26.3516C61.748 26.3516 59.5215 25.8242 57.5527 24.7695C55.5957 23.7031 54.0547 22.1738 52.9297 20.1816C51.8047 18.1895 51.2422 15.8926 51.2422 13.291C51.2422 10.6777 51.8047 8.38086 52.9297 6.40039C54.0547 4.4082 55.5957 2.88477 57.5527 1.83008C59.5215 0.775391 61.748 0.248047 64.2324 0.248047C66.7168 0.248047 68.9375 0.775391 70.8945 1.83008C72.8516 2.88477 74.3926 4.4082 75.5176 6.40039C76.6426 8.38086 77.2051 10.6777 77.2051 13.291C77.2051 15.8926 76.6426 18.1895 75.5176 20.1816C74.3926 22.1738 72.8457 23.7031 70.877 24.7695C68.9199 25.8242 66.7051 26.3516 64.2324 26.3516ZM58.6777 19.3027C60.1309 20.7793 61.9824 21.5176 64.2324 21.5176C66.4824 21.5176 68.334 20.7793 69.7871 19.3027C71.2402 17.8145 71.9668 15.8105 71.9668 13.291C71.9668 10.7832 71.2402 8.79102 69.7871 7.31445C68.334 5.83789 66.4824 5.09961 64.2324 5.09961C61.9824 5.09961 60.1309 5.83789 58.6777 7.31445C57.2246 8.79102 56.498 10.7832 56.498 13.291C56.498 15.8105 57.2246 17.8145 58.6777 19.3027Z" fill="white"/>
<path d="M92.6211 0.599609C95.0469 0.599609 96.998 1.39062 98.4746 2.97266C99.9512 4.54297 100.689 6.48828 100.689 8.80859C100.689 11.1641 99.957 13.1035 98.4922 14.627C97.0273 16.1387 95.0703 16.8945 92.6211 16.8945H87.3301V26H82.0566V0.599609H92.6211ZM91.7422 12.4824C93.0312 12.4824 93.998 12.1543 94.6426 11.498C95.2871 10.8301 95.6094 9.91016 95.6094 8.73828C95.6094 7.60156 95.2812 6.69922 94.625 6.03125C93.9805 5.35156 93.0195 5.01172 91.7422 5.01172H87.3301V12.4824H91.7422Z" fill="white"/>
<path d="M105.717 26V13.625V1.25H113.697C116.158 1.25 118.256 1.7832 119.99 2.84961C121.736 3.91602 123.025 5.36914 123.857 7.20898C124.701 9.03711 125.123 11.1699 125.123 13.6074C125.123 15.4355 124.877 17.1055 124.385 18.6172C123.904 20.1172 123.195 21.418 122.258 22.5195C121.32 23.6211 120.119 24.4766 118.654 25.0859C117.201 25.6953 115.549 26 113.697 26H105.717ZM108.863 23.1348H113.592C116.322 23.1348 118.379 22.291 119.762 20.6035C121.156 18.916 121.854 16.584 121.854 13.6074C121.854 10.6543 121.156 8.33398 119.762 6.64648C118.367 4.95898 116.311 4.11523 113.592 4.11523H108.863V23.1348Z" fill="#E30909"/>
<path d="M144.512 4.11523H134.457V12.2188H143.316V15.0488H134.457V23.1348H144.512V26H131.24V1.25H144.512V4.11523Z" fill="#E30909"/>
<path d="M176.715 26H173.656L172.004 5.57422L164.094 26H162.213L154.355 5.64453L152.686 26H149.609L151.49 1.25H155.639L163.145 20.5508L170.668 1.25H174.852L176.715 26Z" fill="#E30909"/>
<path d="M194.152 26.334C192.406 26.334 190.783 26.041 189.283 25.4551C187.783 24.8574 186.477 24.0254 185.363 22.959C184.262 21.8809 183.395 20.5391 182.762 18.9336C182.141 17.3281 181.83 15.5527 181.83 13.6074C181.83 11.6738 182.146 9.91016 182.779 8.31641C183.412 6.71094 184.279 5.36914 185.381 4.29102C186.482 3.21289 187.783 2.38086 189.283 1.79492C190.783 1.20898 192.406 0.916016 194.152 0.916016C195.875 0.916016 197.486 1.21484 198.986 1.8125C200.486 2.39844 201.787 3.23047 202.889 4.30859C203.99 5.375 204.857 6.71094 205.49 8.31641C206.123 9.91016 206.439 11.6738 206.439 13.6074C206.439 15.541 206.123 17.3164 205.49 18.9336C204.857 20.5391 203.99 21.8809 202.889 22.959C201.787 24.0254 200.486 24.8574 198.986 25.4551C197.486 26.041 195.875 26.334 194.152 26.334ZM194.152 23.3633C196.789 23.3633 198.969 22.4961 200.691 20.7617C202.426 19.0156 203.293 16.6309 203.293 13.6074C203.293 12.0957 203.053 10.7246 202.572 9.49414C202.104 8.26367 201.453 7.24414 200.621 6.43555C199.801 5.62695 198.834 5.00586 197.721 4.57227C196.619 4.13867 195.43 3.92188 194.152 3.92188C192.863 3.92188 191.662 4.13867 190.549 4.57227C189.436 5.00586 188.463 5.62695 187.631 6.43555C186.799 7.24414 186.143 8.26367 185.662 9.49414C185.193 10.7246 184.959 12.0957 184.959 13.6074C184.959 15.1309 185.193 16.5137 185.662 17.7559C186.143 18.998 186.799 20.0234 187.631 20.832C188.463 21.6406 189.436 22.2676 190.549 22.7129C191.662 23.1465 192.863 23.3633 194.152 23.3633Z" fill="#E30909"/>
</svg>
