<svg width="52" height="52" viewBox="0 0 52 52" fill="none" xmlns="http://www.w3.org/2000/svg">
<rect width="52" height="52" rx="26" fill="white"/>
<path d="M26 19.7778C23.4224 19.7778 21.3333 21.17 21.3333 22.8889C21.3333 24.6078 23.4224 26 26 26C28.5776 26 30.6667 27.3922 30.6667 29.1111C30.6667 30.83 28.5776 32.2222 26 32.2222M26 19.7778V32.2222M26 19.7778C27.7267 19.7778 29.2356 20.4031 30.0429 21.3333M26 19.7778V18.2222M26 32.2222V33.7778M26 32.2222C24.2733 32.2222 22.7644 31.5969 21.9571 30.6667M40 26C40 27.8385 39.6379 29.659 38.9343 31.3576C38.2307 33.0561 37.1995 34.5995 35.8995 35.8995C34.5995 37.1995 33.0561 38.2307 31.3576 38.9343C29.659 39.6379 27.8385 40 26 40C24.1615 40 22.341 39.6379 20.6424 38.9343C18.9439 38.2307 17.4005 37.1995 16.1005 35.8995C14.8005 34.5995 13.7693 33.0561 13.0657 31.3576C12.3621 29.659 12 27.8385 12 26C12 22.287 13.475 18.726 16.1005 16.1005C18.726 13.475 22.287 12 26 12C29.713 12 33.274 13.475 35.8995 16.1005C38.525 18.726 40 22.287 40 26Z" stroke="#E30613" stroke-width="1.5" stroke-linecap="round" stroke-linejoin="round"/>
</svg>
