<svg width="52" height="52" viewBox="0 0 52 52" fill="none" xmlns="http://www.w3.org/2000/svg">
<rect width="52" height="52" rx="26" fill="white"/>
<path d="M14 25.55L16.5667 22.9833M16.5667 22.9833L25.55 14L34.5333 22.9833M16.5667 22.9833V35.8167C16.5667 36.157 16.7019 36.4834 16.9425 36.7241C17.1832 36.9648 17.5096 37.1 17.85 37.1H21.7M34.5333 22.9833L37.1 25.55M34.5333 22.9833V35.8167C34.5333 36.157 34.3981 36.4834 34.1575 36.7241C33.9168 36.9648 33.5904 37.1 33.25 37.1H29.4M21.7 37.1C22.0404 37.1 22.3668 36.9648 22.6075 36.7241C22.8481 36.4834 22.9833 36.157 22.9833 35.8167V30.6833C22.9833 30.343 23.1185 30.0166 23.3592 29.7759C23.5999 29.5352 23.9263 29.4 24.2667 29.4H26.8333C27.1737 29.4 27.5001 29.5352 27.7408 29.7759C27.9815 30.0166 28.1167 30.343 28.1167 30.6833V35.8167C28.1167 36.157 28.2519 36.4834 28.4925 36.7241C28.7332 36.9648 29.0596 37.1 29.4 37.1M21.7 37.1H29.4" stroke="#E30613" stroke-width="1.5" stroke-linecap="round" stroke-linejoin="round"/>
</svg>
