<svg width="16" height="16" viewBox="0 0 16 16" fill="none" xmlns="http://www.w3.org/2000/svg"><path d="M8 0C3.58214.0.0 3.58214.0 8 0 12.4179 3.58214 16 8 16 12.4179 16 16 12.4179 16 8 16 3.58214 12.4179.0 8 0zM8 14.6429C4.33214 14.6429 1.35714 11.6679 1.35714 8 1.35714 4.33214 4.33214 1.35714 8 1.35714 11.6679 1.35714 14.6429 4.33214 14.6429 8 14.6429 11.6679 11.6679 14.6429 8 14.6429z" fill="#50ac58"/><path d="M8.00004 1.35706C4.33218 1.35706 1.35718 4.33206 1.35718 7.99991 1.35718 11.6678 4.33218 14.6428 8.00004 14.6428 11.6679 14.6428 14.6429 11.6678 14.6429 7.99991 14.6429 4.33206 11.6679 1.35706 8.00004 1.35706zM11.4536 5.38741 7.69289 10.6017C7.64033 10.6751 7.57104 10.7348 7.49076 10.7761 7.41048 10.8173 7.32154 10.8388 7.23129 10.8388 7.14104 10.8388 7.05209 10.8173 6.97181 10.7761 6.89153 10.7348 6.82224 10.6751 6.76968 10.6017L4.54468 7.51598C4.47682 7.42134 4.54468 7.2892 4.66075 7.2892H5.49825C5.68218 7.2892 5.85361 7.37848 5.96075 7.5267L7.23218 9.29098 10.0393 5.39813C10.1465 5.24813 10.3197 5.16063 10.5018 5.16063H11.3393C11.4554 5.16063 11.5232 5.29277 11.4536 5.38741z" fill="#50ac58" fill-opacity=".1"/><path d="M11.339 5.16064H10.5015C10.3194 5.16064 10.1462 5.24814 10.039 5.39814L7.23186 9.291 5.96042 7.52672C5.85328 7.3785 5.68185 7.28922 5.49792 7.28922H4.66042C4.54435 7.28922 4.47649 7.42136 4.54435 7.516L6.76935 10.6017C6.82192 10.6751 6.89121 10.7349 6.97149 10.7761 7.05176 10.8173 7.14071 10.8388 7.23096 10.8388 7.32121 10.8388 7.41016 10.8173 7.49044 10.7761 7.57072 10.7349 7.64001 10.6751 7.69257 10.6017L11.4533 5.38743C11.5229 5.29279 11.4551 5.16064 11.339 5.16064z" fill="#50ac58"/></svg>