<svg width="31" height="35" viewBox="0 0 31 35" fill="none" xmlns="http://www.w3.org/2000/svg"><path d="M15.4143 12.4946C14.5449 12.4946 13.9268 12.8617 13.9268 13.4026V20.7631C13.9268 21.2267 14.545 21.6904 15.4143 21.6904 16.245 21.6904 16.9212 21.2267 16.9212 20.7631V13.4026C16.9212 12.8617 16.245 12.4946 15.4143 12.4946z" fill="#5a5e6a" fill-opacity=".5"/><path d="M15.4142 7.9541C14.5256 7.9541 13.8301 8.59162 13.8301 9.32573 13.8301 10.0598 14.5256 10.7167 15.4142 10.7167 16.2836 10.7167 16.9791 10.0598 16.9791 9.32573 16.9791 8.59169 16.2836 7.9541 15.4142 7.9541z" fill="#5a5e6a" fill-opacity=".5"/><path d="M15.4141.0C7.10143.0.375 6.72301.375 15.0304.375 21.8138 4.84112 27.4462 10.8625 29.3591L14.2826 34.4004C14.5371 34.7754 14.9608 35 15.4141 35 15.8673 35 16.291 34.7754 16.5455 34.4004L19.9656 29.3591C25.9897 27.4453 30.4531 21.8108 30.4531 15.0304 30.4531 6.71774 23.7213.0 15.4141.0zM18.7394 26.872C18.428 26.9591 18.1577 27.1536 17.9762 27.4211L15.4141 31.1976 12.852 27.4212C12.6705 27.1537 12.4001 26.9591 12.0887 26.8721 6.96327 25.4389 3.10938 20.7253 3.10938 15.0304 3.10938 8.25029 8.62926 2.73438 15.4141 2.73438 22.1989 2.73438 27.7188 8.25029 27.7188 15.0304 27.7188 20.7309 23.8592 25.4405 18.7394 26.872z" fill="#5a5e6a" fill-opacity=".5"/></svg>