<?xml version="1.0" encoding="iso-8859-1"?>
<!-- Uploaded to: SVG Repo, www.svgrepo.com, Generator: SVG Repo Mixer Tools -->
<svg fill="#000000" height="800px" width="800px" version="1.1" id="Capa_1" xmlns="http://www.w3.org/2000/svg" xmlns:xlink="http://www.w3.org/1999/xlink" 
	 viewBox="0 0 490 490" xml:space="preserve">
<g id="Business_1_Bold_7_">
	<path d="M47.094,444.124h81.538c18.93,0,35.194-11.303,42.668-27.46c4.64,0.306,15.177,4.426,31.044,22.314
		c40.356,45.486,67.816,49.529,136.014,49.529l12.191,0.031c4.135,0.031,8.178,0.046,12.191,0.046
		c41.688,0,76.898-1.899,93.775-25.194c8.944-12.344,10.858-28.226,5.758-48.335c10.185-12.145,26.648-38.303,17.505-72.854
		c9.541-15.974,17.214-44.629-0.061-75.78c3.614-12.114,8.607-36.083-0.322-56.636c-5.437-12.543-15.376-21.931-28.716-27.123
		c-18.807-7.321-36.496-5.927-52.102-4.671c-23.754,1.899-35.654,1.96-47.829-16.847c-7.704-11.885-12.972-32.407-18.532-54.139
		c-12.865-50.173-30.523-118.77-99.166-103.393l-3.094,0.704l-2.573,1.884c-2.879,2.098-27.797,21.977-20.461,72.257
		c6.678,45.746-7.688,84.724-34.199,98.477c-6.616-18.026-23.784-30.998-44.077-30.998H47.094C21.135,145.937,0,167.072,0,193.047
		v203.968C0,422.989,21.135,444.124,47.094,444.124z M237.217,74.033c-3.614-24.795,3.339-37.048,6.647-41.305
		c31.32-4.794,43.066,20.982,58.673,81.906c6.203,24.213,12.068,47.094,22.513,63.19c22.651,34.934,52.179,32.606,75.963,30.707
		c13.539-1.057,26.312-2.098,38.548,2.68c5.774,2.251,9.496,5.667,11.732,10.736c5.774,13.202,0.077,33.862-2.588,40.646
		l-2.971,7.459l4.441,6.708c19.343,29.084,2.941,50.693,1.118,52.929l-5.835,6.8l3.094,8.423
		c11.609,31.58-12.512,53.649-13.477,54.507l-7.704,6.708l3.216,9.694c3.247,9.756,6.065,22.804,1.133,29.635
		c-9.266,12.804-47.401,12.635-81.033,12.482l-12.329-0.031c-64.462,0-81.293-3.385-113.103-39.238
		c-20.293-22.896-37.002-30.753-49.514-32.346V208.806C220.631,193.751,246.667,138.724,237.217,74.033z M30.63,193.047
		c0-9.082,7.382-16.464,16.464-16.464h81.538c9.082,0,16.464,7.382,16.464,16.464v203.968c0,9.097-7.382,16.479-16.464,16.479
		H47.094c-9.082,0-16.464-7.382-16.464-16.479V193.047z" fill="#399841" />
</g>
</svg>