<svg width="78" height="69" viewBox="0 0 78 69" fill="none" xmlns="http://www.w3.org/2000/svg">
<path d="M60.25 64C59.5083 64 58.7833 63.7801 58.1666 63.368C57.5499 62.956 57.0693 62.3703 56.7855 61.6851C56.5016 60.9998 56.4274 60.2458 56.5721 59.5184C56.7168 58.791 57.0739 58.1228 57.5984 57.5984C58.1228 57.0739 58.791 56.7168 59.5184 56.5721C60.2458 56.4274 60.9998 56.5016 61.6851 56.7855C62.3703 57.0693 62.956 57.5499 63.368 58.1666C63.7801 58.7833 64 59.5083 64 60.25C63.9989 61.2442 63.6034 62.1974 62.9004 62.9004C62.1974 63.6034 61.2442 63.9989 60.25 64ZM60.25 59C60.0028 59 59.7611 59.0733 59.5555 59.2107C59.35 59.348 59.1898 59.5432 59.0952 59.7717C59.0005 60.0001 58.9758 60.2514 59.024 60.4939C59.0723 60.7363 59.1913 60.9591 59.3661 61.1339C59.5409 61.3087 59.7637 61.4278 60.0061 61.476C60.2486 61.5242 60.4999 61.4995 60.7284 61.4049C60.9568 61.3102 61.152 61.15 61.2893 60.9445C61.4267 60.7389 61.5 60.4972 61.5 60.25C61.4996 59.9186 61.3678 59.6009 61.1335 59.3665C60.8991 59.1322 60.5814 59.0004 60.25 59Z" fill="#6E6E6E"/>
<path d="M16.5 56.5C17.2417 56.5 17.9667 56.7199 18.5834 57.132C19.2001 57.544 19.6807 58.1297 19.9645 58.8149C20.2484 59.5002 20.3226 60.2542 20.1779 60.9816C20.0332 61.709 19.6761 62.3772 19.1516 62.9017C18.6272 63.4261 17.959 63.7833 17.2316 63.928C16.5042 64.0726 15.7502 63.9984 15.0649 63.7146C14.3797 63.4307 13.794 62.9501 13.382 62.3334C12.9699 61.7167 12.75 60.9917 12.75 60.25C12.7511 59.2558 13.1466 58.3026 13.8496 57.5996C14.5526 56.8966 15.5058 56.5011 16.5 56.5ZM16.5 61.5C16.7472 61.5 16.9889 61.4267 17.1945 61.2893C17.4 61.152 17.5602 60.9568 17.6548 60.7284C17.7495 60.4999 17.7742 60.2486 17.726 60.0061C17.6777 59.7637 17.5587 59.5409 17.3839 59.3661C17.2091 59.1913 16.9863 59.0723 16.7439 59.024C16.5014 58.9758 16.25 59.0005 16.0216 59.0952C15.7932 59.1898 15.598 59.35 15.4607 59.5555C15.3233 59.7611 15.25 60.0028 15.25 60.25C15.2504 60.5814 15.3822 60.8991 15.6165 61.1335C15.8509 61.3678 16.1686 61.4996 16.5 61.5Z" fill="#6E6E6E"/>
<path d="M4 19H10.1547C10.7784 17.3754 11.641 15.8529 12.7141 14.4828L10.6156 12.3844C10.4995 12.2682 10.4074 12.1304 10.3445 11.9786C10.2817 11.8269 10.2493 11.6642 10.2493 11.5C10.2493 11.3358 10.2817 11.1731 10.3445 11.0214C10.4074 10.8696 10.4995 10.7318 10.6156 10.6156C10.7318 10.4995 10.8696 10.4074 11.0214 10.3445C11.1731 10.2817 11.3358 10.2493 11.5 10.2493C11.6642 10.2493 11.8269 10.2817 11.9786 10.3445C12.1304 10.4074 12.2682 10.4995 12.3844 10.6156L14.3937 12.625C17.3357 9.79409 21.1775 8.08496 25.25 7.79531V6.5H22.75C22.4185 6.5 22.1005 6.3683 21.8661 6.13388C21.6317 5.89946 21.5 5.58152 21.5 5.25V1.5C21.5 1.16848 21.6317 0.850537 21.8661 0.616117C22.1005 0.381696 22.4185 0.25 22.75 0.25H30.25C30.5815 0.25 30.8995 0.381696 31.1339 0.616117C31.3683 0.850537 31.5 1.16848 31.5 1.5V5.25C31.5 5.58152 31.3683 5.89946 31.1339 6.13388C30.8995 6.3683 30.5815 6.5 30.25 6.5H27.75V7.79531C31.0702 8.03748 34.2529 9.21974 36.926 11.2039C39.5991 13.188 41.6522 15.8921 42.8453 19H50.25C50.5815 19 50.8995 19.1317 51.1339 19.3661C51.3683 19.6005 51.5 19.9185 51.5 20.25V24H64C64.2204 24.0002 64.4368 24.0585 64.6275 24.169C64.8182 24.2796 64.9763 24.4385 65.0859 24.6297L75.0859 42.1297C75.1936 42.3187 75.2501 42.5325 75.25 42.75V60.25C75.25 60.5815 75.1183 60.8995 74.8839 61.1339C74.6495 61.3683 74.3315 61.5 74 61.5H67.6438C67.4714 62.5115 67.0937 63.4769 66.5339 64.3369C65.9742 65.1968 65.2442 65.933 64.3891 66.5H76.5C76.8315 66.5 77.1495 66.6317 77.3839 66.8661C77.6183 67.1005 77.75 67.4185 77.75 67.75C77.75 68.0815 77.6183 68.3995 77.3839 68.6339C77.1495 68.8683 76.8315 69 76.5 69H6.5C6.16848 69 5.85053 68.8683 5.61612 68.6339C5.3817 68.3995 5.25 68.0815 5.25 67.75C5.25 67.4185 5.3817 67.1005 5.61612 66.8661C5.85053 66.6317 6.16848 66.5 6.5 66.5H12.3609C11.5058 65.933 10.7758 65.1968 10.2161 64.3369C9.65633 63.4769 9.27862 62.5115 9.10625 61.5H4C3.66848 61.5 3.35053 61.3683 3.11612 61.1339C2.8817 60.8995 2.75 60.5815 2.75 60.25V20.25C2.75 19.9185 2.8817 19.6005 3.11612 19.3661C3.35053 19.1317 3.66848 19 4 19ZM29 4V2.75H24V4H29ZM26.5 10.25C23.5333 10.25 20.6332 11.1297 18.1664 12.778C15.6997 14.4262 13.7771 16.7689 12.6418 19.5097C11.5065 22.2506 11.2094 25.2666 11.7882 28.1764C12.367 31.0861 13.7956 33.7588 15.8934 35.8566C17.9912 37.9544 20.6639 39.383 23.5736 39.9618C26.4834 40.5406 29.4994 40.2435 32.2402 39.1082C34.9811 37.9729 37.3238 36.0503 38.972 33.5836C40.6203 31.1168 41.5 28.2167 41.5 25.25C41.4952 21.2732 39.9134 17.4607 37.1013 14.6487C34.2893 11.8366 30.4768 10.2548 26.5 10.25ZM65.4172 30.25H56.5V41.5H71.8453L65.4172 30.25ZM72.75 47.75H70.25C69.9185 47.75 69.6005 47.8817 69.3661 48.1161C69.1317 48.3505 69 48.6685 69 49C69 49.3315 69.1317 49.6495 69.3661 49.8839C69.6005 50.1183 69.9185 50.25 70.25 50.25H72.75V47.75ZM67.6438 59H72.75V52.75H70.25C69.2554 52.75 68.3016 52.3549 67.5983 51.6516C66.8951 50.9484 66.5 49.9946 66.5 49C66.5 48.0054 66.8951 47.0516 67.5983 46.3484C68.3016 45.6451 69.2554 45.25 70.25 45.25H72.75V44H55.25C54.9185 44 54.6005 43.8683 54.3661 43.6339C54.1317 43.3995 54 43.0815 54 42.75V29C54 28.6685 54.1317 28.3505 54.3661 28.1161C54.6005 27.8817 54.9185 27.75 55.25 27.75H63.9891L63.275 26.5H51.5V59H52.8562C53.1514 57.2525 54.0559 55.666 55.4093 54.522C56.7628 53.3779 58.4778 52.7502 60.25 52.7502C62.0222 52.7502 63.7372 53.3779 65.0907 54.522C66.4441 55.666 67.3486 57.2525 67.6438 59ZM60.25 65.25C61.2389 65.25 62.2056 64.9568 63.0279 64.4073C63.8501 63.8579 64.491 63.077 64.8694 62.1634C65.2478 61.2498 65.3469 60.2445 65.1539 59.2745C64.961 58.3046 64.4848 57.4137 63.7855 56.7145C63.0863 56.0152 62.1954 55.539 61.2255 55.3461C60.2555 55.1531 59.2502 55.2522 58.3366 55.6306C57.423 56.009 56.6421 56.6499 56.0927 57.4721C55.5432 58.2944 55.25 59.2611 55.25 60.25C55.2512 61.5757 55.7784 62.8468 56.7158 63.7842C57.6533 64.7216 58.9243 65.2488 60.25 65.25ZM56.1109 66.5C55.2558 65.933 54.5258 65.1968 53.9661 64.3369C53.4063 63.4769 53.0286 62.5115 52.8562 61.5H23.8938C23.7214 62.5115 23.3437 63.4769 22.7839 64.3369C22.2242 65.1968 21.4942 65.933 20.6391 66.5H56.1109ZM16.5 65.25C17.4889 65.25 18.4556 64.9568 19.2779 64.4073C20.1001 63.8579 20.741 63.077 21.1194 62.1634C21.4978 61.2498 21.5969 60.2445 21.4039 59.2745C21.211 58.3046 20.7348 57.4137 20.0355 56.7145C19.3363 56.0152 18.4454 55.539 17.4755 55.3461C16.5055 55.1531 15.5002 55.2522 14.5866 55.6306C13.673 56.009 12.8921 56.6499 12.3427 57.4721C11.7932 58.2944 11.5 59.2611 11.5 60.25C11.5012 61.5757 12.0284 62.8468 12.9658 63.7842C13.9032 64.7216 15.1743 65.2488 16.5 65.25ZM5.25 59H9.10625C9.40135 57.2525 10.3059 55.666 11.6593 54.522C13.0128 53.3779 14.7278 52.7502 16.5 52.7502C18.2722 52.7502 19.9872 53.3779 21.3407 54.522C22.6941 55.666 23.5986 57.2525 23.8938 59H49V50.25H5.25V59ZM5.25 47.75H49V21.5H43.5938C44.1542 24.0557 44.1345 26.7046 43.536 29.2517C42.9376 31.7988 41.7755 34.1793 40.1355 36.218C38.4955 38.2567 36.4192 39.9017 34.0594 41.0319C31.6996 42.1621 29.1165 42.7488 26.5 42.7488C23.8835 42.7488 21.3004 42.1621 18.9406 41.0319C16.5808 39.9017 14.5045 38.2567 12.8645 36.218C11.2245 34.1793 10.0624 31.7988 9.46396 29.2517C8.86547 26.7046 8.84576 24.0557 9.40625 21.5H5.25V47.75Z" fill="#6E6E6E"/>
<path d="M26.5 39C23.7805 39 21.1221 38.1936 18.8609 36.6827C16.5997 35.1718 14.8374 33.0244 13.7967 30.5119C12.756 27.9994 12.4837 25.2347 13.0142 22.5675C13.5448 19.9003 14.8543 17.4503 16.7773 15.5273C18.7003 13.6043 21.1503 12.2948 23.8175 11.7642C26.4848 11.2337 29.2494 11.506 31.7619 12.5467C34.2744 13.5874 36.4218 15.3497 37.9327 17.6109C39.4436 19.8721 40.25 22.5305 40.25 25.25C40.2459 28.8955 38.7959 32.3904 36.2182 34.9682C33.6404 37.5459 30.1455 38.9959 26.5 39ZM26.5 14C24.275 14 22.0999 14.6598 20.2498 15.896C18.3998 17.1321 16.9578 18.8891 16.1064 20.9448C15.2549 23.0005 15.0321 25.2625 15.4662 27.4448C15.9003 29.6271 16.9717 31.6316 18.5451 33.205C20.1184 34.7783 22.123 35.8498 24.3052 36.2838C26.4875 36.7179 28.7495 36.4951 30.8052 35.6436C32.8609 34.7922 34.6179 33.3502 35.854 31.5002C37.0902 29.6501 37.75 27.475 37.75 25.25C37.7467 22.2673 36.5603 19.4078 34.4513 17.2988C32.3422 15.1897 29.4827 14.0034 26.5 14Z" fill="#50AC58"/>
<path d="M24.8839 28.6339C24.7678 28.75 24.63 28.8421 24.4784 28.9049C24.3267 28.9677 24.1642 29 24 29C23.8358 29 23.6733 28.9677 23.5216 28.9049C23.37 28.8421 23.2322 28.75 23.1161 28.6339C23 28.5178 22.9079 28.38 22.8451 28.2284C22.7823 28.0767 22.75 27.9142 22.75 27.75C22.75 27.5858 22.7823 27.4233 22.8451 27.2716C22.9079 27.12 23 26.9822 23.1161 26.8661L25.25 24.7323V20.25C25.25 19.9185 25.3817 19.6005 25.6161 19.3661C25.8505 19.1317 26.1685 19 26.5 19C26.8315 19 27.1495 19.1317 27.3839 19.3661C27.6183 19.6005 27.75 19.9185 27.75 20.25V25.25C27.75 25.4142 27.7177 25.5767 27.6549 25.7284C27.5921 25.88 27.5 26.0178 27.3839 26.1339L24.8839 28.6339Z" fill="#50AC58"/>
<path d="M1.5 66.5H2.75C3.08152 66.5 3.39946 66.6317 3.63388 66.8661C3.8683 67.1005 4 67.4185 4 67.75C4 68.0815 3.8683 68.3995 3.63388 68.6339C3.39946 68.8683 3.08152 69 2.75 69H1.5C1.16848 69 0.850536 68.8683 0.616116 68.6339C0.381695 68.3995 0.25 68.0815 0.25 67.75C0.25 67.4185 0.381695 67.1005 0.616116 66.8661C0.850536 66.6317 1.16848 66.5 1.5 66.5Z" fill="#6E6E6E"/>
</svg>
