<svg width="66" height="56" viewBox="0 0 66 56" fill="none" xmlns="http://www.w3.org/2000/svg">
<path d="M65.3742 19.7167L65.3751 19.7152L58.4872 15.5751V1.66446C58.4872 0.952639 57.91 0.375397 57.1982 0.375397H8.80172C8.0899 0.375397 7.51266 0.952639 7.51266 1.66446V15.5339C5.21503 16.929 2.91805 18.3235 0.620297 19.7179L0.621457 19.7197C0.237316 19.9529 0 20.3685 0 20.8199V54.3355C0 55.0474 0.577113 55.6246 1.28906 55.6246H27.5859C28.2979 55.6246 28.875 55.0474 28.875 54.3355C28.875 53.6237 28.2979 53.0465 27.5859 53.0465H5.89695L32.8469 36.6862L60.064 53.0465H38.4141C37.7022 53.0465 37.125 53.6237 37.125 54.3355C37.125 55.0474 37.7022 55.6246 38.4141 55.6246H64.7109C65.4228 55.6246 66 55.0474 66 54.3355V20.8199C66 20.3668 65.761 19.9493 65.3742 19.7167V19.7167ZM57.8619 26.4405C59.7156 25.3273 61.5686 24.2133 63.4219 23.099V52.0567L39.3343 37.5779C45.5101 33.866 51.6868 30.1533 57.8619 26.4405V26.4405ZM62.209 20.8201C60.9685 21.5659 59.7279 22.3114 58.4873 23.0568V18.583L62.209 20.8201ZM8.13295 26.4827L26.4102 37.5777L2.57812 52.0453V23.1105L4.30663 24.1598C5.58203 24.9342 6.8573 25.7086 8.13295 26.4827V26.4827ZM7.51266 23.0901C6.89004 22.712 6.26729 22.3342 5.6448 21.9561L3.77309 20.8199C5.01961 20.0634 6.26626 19.3066 7.51266 18.5498V23.0901ZM32.1747 34.0783L28.8945 36.0697L10.0908 24.6551V2.95352H55.9092V24.6064C49.5505 28.4294 43.1909 32.2521 36.8323 36.0738L33.5079 34.0755C33.0973 33.8288 32.5841 33.8299 32.1747 34.0783V34.0783Z" fill="#6E6E6E"/>
<path d="M33 55.6246C33.7119 55.6246 34.2891 55.0475 34.2891 54.3355C34.2891 53.6236 33.7119 53.0465 33 53.0465C32.2881 53.0465 31.7109 53.6236 31.7109 54.3355C31.7109 55.0475 32.2881 55.6246 33 55.6246Z" fill="#6E6E6E"/>
<path d="M45.0898 26.4143C45.0898 25.7025 44.5126 25.1253 43.8008 25.1253H21.8867C21.1749 25.1253 20.5977 25.7025 20.5977 26.4143C20.5977 27.1262 21.1749 27.7034 21.8867 27.7034H43.8008C44.5127 27.7034 45.0898 27.1263 45.0898 26.4143Z" fill="#50AC58"/>
<path d="M50.2461 18.4652C50.2461 17.7533 49.6689 17.1761 48.957 17.1761H16.7305C16.0186 17.1761 15.4414 17.7533 15.4414 18.4652C15.4414 19.177 16.0186 19.7543 16.7305 19.7543H48.957C49.669 19.7543 50.2461 19.1772 50.2461 18.4652Z" fill="#50AC58"/>
<path d="M21.8867 11.805H43.8008C44.5126 11.805 45.0898 11.2279 45.0898 10.5159C45.0898 9.80411 44.5126 9.22687 43.8008 9.22687H21.8867C21.1749 9.22687 20.5977 9.80411 20.5977 10.5159C20.5977 11.2279 21.1749 11.805 21.8867 11.805V11.805Z" fill="#6E6E6E"/>
</svg>
