<svg width="56" height="66" viewBox="0 0 56 66" fill="none" xmlns="http://www.w3.org/2000/svg">
<path d="M55.0456 60.6484V0.966779C55.0456 0.432849 54.6127 -1.82986e-05 54.0788 -1.82986e-05H7.40466C6.87073 -1.82986e-05 6.43786 0.432849 6.43786 0.966779V4.38473H1.92305C1.38912 4.38473 0.95625 4.8176 0.95625 5.35152V13.794C0.95625 15.044 2.88984 15.044 2.88984 13.794V6.31832H6.43786V43.9932C6.43786 49.3476 10.2564 53.9069 15.5175 54.8341L47.6304 60.4936V64.0664H2.88984V19.2786C2.88984 18.0286 0.95625 18.0286 0.95625 19.2786V65.0332C0.95625 65.5671 1.38912 66 1.92305 66H48.5972C49.1311 66 49.564 65.5671 49.564 65.0332V60.8344L53.9111 61.6005C54.3348 61.6752 55.0456 61.4023 55.0456 60.6484ZM8.37145 43.9932V1.93358H53.112V58.9272L33.8976 47.219C32.8301 46.5687 31.8239 48.2198 32.8914 48.8703L49.198 58.8066L20.4122 53.7334C23.6943 51.8262 25.016 47.8397 25.3238 44.2588L28.5009 46.1948C29.5685 46.845 30.5747 45.194 29.5072 44.5435L24.9229 41.7501C24.0921 41.4522 23.6024 41.7384 23.4536 42.6084C23.6178 47.6869 20.0518 53.6248 15.847 52.9286C11.5068 52.21 8.37145 48.4053 8.37145 43.9932Z" fill="#6E6E6E"/>
<path fill-rule="evenodd" clip-rule="evenodd" d="M28.5009 46.1948L25.3238 44.2588C25.3143 44.3691 25.3038 44.4799 25.2924 44.591C24.9474 47.9401 23.7014 51.5736 20.7945 53.4962C20.6701 53.5784 20.5427 53.6575 20.4122 53.7334L49.198 58.8066L32.8914 48.8703C31.8239 48.2198 32.8301 46.5687 33.8976 47.219L53.112 58.9272V1.93358H8.37145V43.9932C8.37145 48.4053 11.5068 52.21 15.847 52.9286C20.0518 53.6248 23.6178 47.6869 23.4536 42.6084C23.6024 41.7384 24.0921 41.4522 24.9229 41.7501L29.5072 44.5435C30.5747 45.194 29.5685 46.845 28.5009 46.1948ZM8.67145 2.23358V43.9932C8.67145 48.2632 11.7052 51.9387 15.896 52.6327C17.8308 52.953 19.6738 51.7542 21.0414 49.7641C22.4032 47.7826 23.2337 45.091 23.1538 42.6181L23.1528 42.5878L23.1579 42.5578C23.2389 42.0841 23.4254 41.6901 23.7812 41.4823C24.1369 41.2744 24.5717 41.3055 25.0241 41.4677L25.0529 41.4781L29.6633 44.2873C30.0025 44.494 30.1926 44.7936 30.2464 45.1184C30.2988 45.4351 30.2187 45.7541 30.0609 46.013C29.9031 46.2719 29.6563 46.4895 29.3508 46.5881C29.0375 46.6892 28.6841 46.6576 28.3449 46.451L25.5757 44.7636C25.2173 48.0116 24.0093 51.5654 21.2155 53.5704L47.6835 58.2351L32.7352 49.1265C32.3961 48.9198 32.2059 48.6202 32.1522 48.2954C32.0997 47.9787 32.1799 47.6596 32.3377 47.4007C32.4955 47.1418 32.7423 46.9243 33.0478 46.8257C33.361 46.7246 33.7145 46.7561 34.0537 46.9628L52.812 58.393V2.23358H8.67145ZM55.3456 0.966779V60.6484C55.3456 61.1345 55.1101 61.4813 54.8031 61.6851C54.5097 61.8799 54.1483 61.9469 53.859 61.896L49.864 61.1919V65.0332C49.864 65.7328 49.2968 66.3 48.5972 66.3H1.92305C1.22343 66.3 0.65625 65.7328 0.65625 65.0332V19.2786C0.65625 18.8814 0.813171 18.5631 1.06251 18.3482C1.30565 18.1386 1.61987 18.0411 1.92305 18.0411C2.22622 18.0411 2.54044 18.1386 2.78359 18.3482C3.03292 18.5631 3.18984 18.8814 3.18984 19.2786V63.7664H47.3304V60.7454L15.4654 55.1296C10.0605 54.177 6.13786 49.4927 6.13786 43.9932V6.61832H3.18984V13.794C3.18984 14.1912 3.03292 14.5094 2.78359 14.7243C2.54044 14.9339 2.22622 15.0315 1.92305 15.0315C1.61987 15.0315 1.30565 14.9339 1.06251 14.7243C0.813171 14.5094 0.65625 14.1912 0.65625 13.794V5.35152C0.65625 4.65191 1.22343 4.08473 1.92305 4.08473H6.13786V0.966779C6.13786 0.267163 6.70504 -0.300018 7.40466 -0.300018H54.0788C54.7784 -0.300018 55.3456 0.267163 55.3456 0.966779ZM47.6304 60.4936V64.0664H2.88984V19.2786C2.88984 18.0286 0.95625 18.0286 0.95625 19.2786V65.0332C0.95625 65.5671 1.38912 66 1.92305 66H48.5972C49.1311 66 49.564 65.5671 49.564 65.0332V60.8344L53.9111 61.6005C54.3348 61.6752 55.0456 61.4023 55.0456 60.6484V0.966779C55.0456 0.432849 54.6127 -1.82986e-05 54.0788 -1.82986e-05H7.40466C6.87073 -1.82986e-05 6.43786 0.432849 6.43786 0.966779V4.38473H1.92305C1.38912 4.38473 0.95625 4.8176 0.95625 5.35152V13.794C0.95625 15.044 2.88984 15.044 2.88984 13.794V6.31832H6.43786V43.9932C6.43786 49.3476 10.2564 53.9069 15.5175 54.8341L47.6304 60.4936Z" fill="#6E6E6E"/>
<path d="M15.9857 11.7267H45.497C46.7771 11.6824 46.7761 9.83707 45.497 9.79311H15.9857C14.7056 9.83745 14.7065 11.6827 15.9857 11.7267Z" fill="#6E6E6E"/>
<path fill-rule="evenodd" clip-rule="evenodd" d="M15.9754 12.0265C14.3112 11.9693 14.3079 9.55105 15.9753 9.49329L15.9857 9.49293L45.5073 9.49311C47.1711 9.55029 47.1753 11.9687 45.5074 12.0265L45.497 12.0269L15.9754 12.0265ZM15.9857 9.79311H45.497C46.7761 9.83707 46.7771 11.6824 45.497 11.7267H15.9857C14.7065 11.6827 14.7056 9.83745 15.9857 9.79311Z" fill="#6E6E6E"/>
<path d="M15.9857 17.6877H45.497C46.7771 17.6434 46.7761 15.7981 45.497 15.7541H15.9857C14.7056 15.7986 14.7065 17.6439 15.9857 17.6877Z" fill="#6E6E6E"/>
<path fill-rule="evenodd" clip-rule="evenodd" d="M15.9754 17.9876C14.31 17.9305 14.309 15.5122 15.9753 15.4543L15.9857 15.454L45.5073 15.4541C47.1711 15.5113 47.1753 17.9298 45.5074 17.9876L45.497 17.9879L15.9754 17.9876ZM15.9857 15.7541H45.497C46.7761 15.7981 46.7771 17.6434 45.497 17.6877H15.9857C14.7065 17.6439 14.7056 15.7986 15.9857 15.7541Z" fill="#6E6E6E"/>
<path d="M15.9857 23.6488H45.497C46.7771 23.6045 46.7761 21.7592 45.497 21.7153H15.9857C14.7056 21.7596 14.7065 23.6049 15.9857 23.6488Z" fill="#6E6E6E"/>
<path fill-rule="evenodd" clip-rule="evenodd" d="M15.9754 23.9487C14.3112 23.8915 14.3079 21.4732 15.9753 21.4154L15.9857 21.4151L45.5073 21.4153C47.1711 21.4724 47.1753 23.8909 45.5074 23.9487L45.497 23.949L15.9754 23.9487ZM15.9857 21.7153H45.497C46.7761 21.7592 46.7771 23.6045 45.497 23.6488H15.9857C14.7065 23.6049 14.7056 21.7596 15.9857 21.7153Z" fill="#6E6E6E"/>
<path d="M15.9851 29.6099H45.4964C46.7765 29.5656 46.7755 27.7203 45.4964 27.6763H15.9851C14.705 27.7206 14.7059 29.5659 15.9851 29.6099Z" fill="#50AC58"/>
<path fill-rule="evenodd" clip-rule="evenodd" d="M15.974 29.9097C14.3098 29.8525 14.3065 27.4343 15.9739 27.3765L15.9843 27.3761L45.5059 27.3763C47.1697 27.4335 47.1739 29.8519 45.506 29.9097L45.4956 29.9101L15.974 29.9097ZM15.9843 27.6763H45.4956C46.7747 27.7203 46.7758 29.5656 45.4956 29.6099H15.9843C14.7052 29.5659 14.7043 27.7207 15.9843 27.6763Z" fill="#50AC58"/>
</svg>
