<svg width="66" height="66" viewBox="0 0 66 66" fill="none" xmlns="http://www.w3.org/2000/svg">
<path d="M49.9823 9.36454C50.6941 9.36454 51.2713 8.78729 51.2713 8.07547C51.2713 7.36365 50.6941 6.78641 49.9823 6.78641H49.9749C49.2631 6.78641 48.6895 7.36365 48.6895 8.07547C48.6895 8.78729 49.2704 9.36454 49.9823 9.36454Z" fill="#6E6E6E"/>
<path d="M56.9373 9.36454C57.6492 9.36454 58.2264 8.78729 58.2264 8.07547C58.2264 7.36365 57.6492 6.78641 56.9373 6.78641H56.93C56.2182 6.78641 55.6445 7.36365 55.6445 8.07547C55.6445 8.78729 56.2255 9.36454 56.9373 9.36454Z" fill="#6E6E6E"/>
<path d="M43.0252 9.36454C43.737 9.36454 44.3143 8.78729 44.3143 8.07547C44.3143 7.36365 43.737 6.78641 43.0252 6.78641H43.0179C42.3061 6.78641 41.7324 7.36365 41.7324 8.07547C41.7324 8.78729 42.3133 9.36454 43.0252 9.36454Z" fill="#6E6E6E"/>
<path d="M9.05664 9.36454H28.4264C29.1383 9.36454 29.7154 8.78729 29.7154 8.07547C29.7154 7.36365 29.1383 6.78641 28.4264 6.78641H9.05664C8.34469 6.78641 7.76758 7.36365 7.76758 8.07547C7.76758 8.78729 8.34469 9.36454 9.05664 9.36454Z" fill="#6E6E6E"/>
<path d="M61.8646 0.000823975H4.13557C1.85522 0.000823975 0 1.85591 0 4.13626V51.868C0 54.1483 1.85522 56.0035 4.13557 56.0035H14.4525C15.2751 57.249 16.2299 58.4191 17.31 59.4992C21.5016 63.6907 27.0737 65.999 33 65.999C38.9265 65.999 44.4986 63.6907 48.6901 59.4992C49.7768 58.4124 50.7268 57.24 51.5405 56.0035H61.8646C64.1448 56.0035 66 54.1483 66 51.868V4.13626C66 1.85591 64.1448 0.000823975 61.8646 0.000823975V0.000823975ZM4.13557 2.57895H61.8646C62.7232 2.57895 63.4219 3.27762 63.4219 4.13626V13.5753H2.57812V4.13626C2.57812 3.27762 3.2768 2.57895 4.13557 2.57895V2.57895ZM61.8646 53.4254H52.9967C56.9566 45.1706 55.5221 34.955 48.6901 28.1229C45.2166 24.6495 40.8133 22.4702 35.9561 21.8208C31.2551 21.1925 26.3927 22.1039 22.2638 24.3876C21.6408 24.7323 21.4151 25.5165 21.7596 26.1395C22.1042 26.7625 22.8887 26.9881 23.5115 26.6437C31.1137 22.4386 40.7177 23.7967 46.867 29.9459C54.5123 37.5912 54.5123 50.031 46.867 57.676C43.1625 61.3806 38.2377 63.4208 33 63.4208C27.7623 63.4208 22.8375 61.3806 19.133 57.676C12.9847 51.5279 11.6268 41.9253 15.8307 34.3244C16.1753 33.7014 15.9496 32.9172 15.3266 32.5725C14.7038 32.2279 13.9193 32.4536 13.5747 33.0766C11.291 37.2054 10.3795 42.0674 11.0079 46.7671C11.3213 49.11 11.9918 51.3469 12.9909 53.4252H4.13557C3.2768 53.4252 2.57812 52.7266 2.57812 51.8679V16.1532H63.4219V51.8679C63.4219 52.7267 62.7232 53.4254 61.8646 53.4254Z" fill="#6E6E6E"/>
<path d="M32.998 51.2388C33.71 51.2388 34.2871 50.6616 34.2871 49.9498V46.8732C34.2871 46.1613 33.7099 45.5841 32.998 45.5841C32.2862 45.5841 31.709 46.1613 31.709 46.8732V49.9498C31.709 50.6617 32.2861 51.2388 32.998 51.2388Z" fill="#50AC58"/>
<path d="M32.9982 58.587C39.0885 58.587 44.0433 53.6321 44.0433 47.5418V42.6125C44.0433 40.9447 42.844 39.5526 41.2628 39.2509V35.871C41.2628 32.0656 38.1667 28.9695 34.3611 28.9695H31.6353C27.8298 28.9695 24.7338 32.0656 24.7338 35.871V39.2514C23.1522 39.5541 21.9531 40.9458 21.9531 42.6125V47.5418C21.953 53.6322 26.9079 58.587 32.9982 58.587V58.587ZM27.3119 35.871C27.3119 33.4871 29.2513 31.5476 31.6353 31.5476H34.3611C36.7451 31.5476 38.6846 33.4871 38.6846 35.871V39.1896H27.3119V35.871ZM24.5311 42.6125C24.5311 42.1545 24.9198 41.7677 25.3797 41.7677H40.6203C41.0783 41.7677 41.4651 42.1545 41.4651 42.6125V47.5418C41.4651 52.2105 37.6669 56.0089 32.9982 56.0089C28.3295 56.0089 24.5311 52.2105 24.5311 47.5418V42.6125Z" fill="#50AC58"/>
<path d="M17.3092 28.123C16.8058 28.6264 16.8058 29.4426 17.3092 29.9461C17.5609 30.1977 17.8908 30.3237 18.2207 30.3237C18.5505 30.3237 18.8805 30.1977 19.1322 29.9461L19.1358 29.9425C19.6392 29.4391 19.6374 28.6247 19.134 28.1213C18.6306 27.6179 17.8127 27.6196 17.3092 28.123V28.123Z" fill="#6E6E6E"/>
</svg>
