<svg width="68" height="68" viewBox="0 0 68 68" fill="none" xmlns="http://www.w3.org/2000/svg">
<path d="M67.311 14.7071L40.8273 0.164696C40.4294 -0.0537186 39.9469 -0.0537186 39.549 0.164696L29.5668 5.6458C29.3562 5.70132 29.1596 5.80715 28.9967 5.95916L13.0659 14.7071C12.641 14.9401 12.3769 15.3863 12.3769 15.8713V33.4596C9.68955 34.3001 7.22681 35.7823 5.17911 37.8305C-0.158297 43.1674 -1.51911 51.3074 1.79291 58.0855C2.11456 58.7443 2.90988 59.0177 3.56876 58.6956C4.22815 58.3734 4.50104 57.5781 4.17938 56.9192C1.36542 51.16 2.52182 44.2439 7.05716 39.7086C9.89343 36.8723 13.6641 35.3102 17.6749 35.3102C21.6857 35.3102 25.4564 36.8723 28.2926 39.7086C31.1284 42.5443 32.6905 46.315 32.6905 50.3258C32.6905 54.3366 31.1284 58.1073 28.2921 60.9435C23.7568 65.4789 16.8407 66.6353 11.0815 63.8213C10.4226 63.4991 9.62729 63.7725 9.30564 64.4314C8.98346 65.0908 9.25635 65.8861 9.91574 66.2078C12.3847 67.4145 15.0337 68.0007 17.6635 68.0007C22.2512 68.0002 26.7778 66.2145 30.1707 62.8216C31.7266 61.2657 32.9561 59.4707 33.8262 57.5195L39.549 60.6618C39.7482 60.7713 39.9682 60.8258 40.1882 60.8258C40.4082 60.8258 40.6286 60.7713 40.8273 60.6618L67.311 46.1199C67.7359 45.8864 68 45.4403 68 44.9557V35.7258C68 34.9922 67.4054 34.3976 66.6718 34.3976C65.9383 34.3976 65.3437 34.9922 65.3437 35.7258V44.1697L41.5205 57.2512V31.1972L49.3829 26.8797V33.7237C49.3829 34.1937 49.6308 34.6285 50.035 34.8671C50.2435 34.9901 50.477 35.0518 50.711 35.0518C50.931 35.0518 51.1514 34.9974 51.3512 34.8874L57.0263 31.7637C57.4507 31.5302 57.7137 31.0846 57.7137 30.6005V22.305L65.3437 18.1157V25.1013C65.3437 25.8349 65.9383 26.4294 66.6718 26.4294C67.4054 26.4294 68 25.8349 68 25.1013V15.8713C68 15.3868 67.7359 14.9401 67.311 14.7071V14.7071ZM40.1882 2.84377L63.9123 15.8713L56.4287 19.9807L32.7045 6.95318L40.1882 2.84377ZM40.1882 28.8984L16.464 15.8713L24.2221 11.611L47.9468 24.638L40.1882 28.8984ZM50.7058 23.1231L26.9816 10.0961L29.945 8.46859L53.6697 21.4956L50.7058 23.1231ZM30.1707 37.8305C26.8327 34.4926 22.3949 32.6545 17.6749 32.6545C16.782 32.6545 15.9001 32.7204 15.0332 32.8495V18.1157L38.8647 31.2018V57.2559L34.7283 54.9846C35.1356 53.4853 35.3462 51.9216 35.3462 50.3258C35.3462 45.6058 33.5081 41.168 30.1707 37.8305V37.8305ZM55.058 29.8156L52.0391 31.4773V25.4214L55.058 23.7638V29.8156Z" fill="#6E6E6E"/>
<path d="M66.6719 29.0782C66.3227 29.0782 65.9798 29.2203 65.7329 29.4673C65.4859 29.7142 65.3438 30.0566 65.3438 30.4063C65.3438 30.7554 65.4859 31.0978 65.7329 31.3448C65.9798 31.5923 66.3227 31.7339 66.6719 31.7339C67.021 31.7339 67.364 31.5923 67.6109 31.3448C67.8579 31.0978 68 30.7554 68 30.4063C68 30.0566 67.8579 29.7142 67.6109 29.4673C67.364 29.2203 67.021 29.0782 66.6719 29.0782Z" fill="#6E6E6E"/>
<path d="M13.2086 51.6532C13.5484 51.6532 13.8887 51.5235 14.1476 51.2646C14.6664 50.7458 14.6664 49.9048 14.1476 49.386L13.2278 48.4657H21.0772C22.9812 48.4657 24.5303 50.0148 24.5303 51.9188C24.5303 53.8228 22.9812 55.3719 21.0772 55.3719H16.4262C15.6926 55.3719 15.0981 55.9665 15.0981 56.7001C15.0981 57.4331 15.6926 58.0277 16.4262 58.0277H21.0772C24.4458 58.0277 27.1866 55.2874 27.1866 51.9188C27.1866 48.5502 24.4458 45.8099 21.0772 45.8099H13.2278L14.1476 44.8896C14.6664 44.3708 14.6664 43.5298 14.1476 43.011C13.6293 42.4927 12.7884 42.4927 12.2696 43.011L9.08207 46.1985C8.56379 46.7173 8.56379 47.5583 9.08207 48.0771L12.2696 51.2641C12.529 51.5235 12.8688 51.6532 13.2086 51.6532V51.6532Z" fill="#50AC58"/>
<path d="M6.11801 63.2121C5.74033 63.2121 5.36524 63.0512 5.10324 62.7394L5.10065 62.7363C4.62854 62.175 4.70118 61.3376 5.26252 60.8655C5.82386 60.3929 6.66172 60.4655 7.13382 61.0269C7.60541 61.5887 7.53433 62.4276 6.97299 62.8997C6.72345 63.1093 6.41996 63.2121 6.11801 63.2121Z" fill="#6E6E6E"/>
</svg>
