<svg width="60" height="66" viewBox="0 0 60 66" fill="none" xmlns="http://www.w3.org/2000/svg">
<path d="M41.6016 0C40.8897 0 40.3125 0.577242 40.3125 1.28906V7.21875C40.3125 7.93057 40.8897 8.50781 41.6016 8.50781C42.3134 8.50781 42.8906 7.93057 42.8906 7.21875V1.28906C42.8906 0.577242 42.3134 0 41.6016 0Z" fill="#50AC58"/>
<path d="M11.9531 40.2188C11.2416 40.2188 10.6641 40.7963 10.6641 41.5078C10.6641 42.2194 11.2416 42.7969 11.9531 42.7969C12.6647 42.7969 13.2422 42.2194 13.2422 41.5078C13.2422 40.7963 12.6647 40.2188 11.9531 40.2188Z" fill="#6E6E6E"/>
<path d="M59.6484 37.6406C59.6484 34.7975 57.3353 32.4844 54.4922 32.4844H44.8691C46.3588 28.6684 46.9619 24.1768 46.8456 20.1785C46.8234 19.4155 46.7942 18.9742 46.7546 18.6964C46.6879 15.9112 44.4009 13.6641 41.6016 13.6641C38.7584 13.6641 36.4453 15.9772 36.4453 18.8203V20.1094C36.4453 28.2622 25.9763 32.8429 18.0757 34.8071C17.4783 33.4415 16.1147 32.4844 14.5312 32.4844H1.64062C0.928805 32.4844 0.351562 33.0616 0.351562 33.7734V64.7109C0.351562 65.4228 0.928805 66 1.64062 66H14.5312C16.1042 66 17.4599 65.0555 18.0634 63.7043C18.7176 63.8721 19.3249 64.0307 19.8855 64.1771C24.3863 65.3526 26.8655 66 32.8952 66H46.7578C49.601 66 51.9141 63.6869 51.9141 60.8438C51.9141 59.7836 51.5922 58.7975 51.0414 57.9771C53.0327 57.2807 54.4922 55.378 54.4922 53.1094C54.4922 52.0531 54.1782 51.0638 53.629 50.2397C55.6116 49.542 57.0703 47.6438 57.0703 45.375C57.0703 44.3149 56.7484 43.3287 56.1976 42.5084C58.189 41.8119 59.6484 39.9092 59.6484 37.6406ZM15.8203 62.1328C15.8203 62.8436 15.242 63.4219 14.5312 63.4219H2.92969V35.0625H14.5312C15.242 35.0625 15.8203 35.6408 15.8203 36.3516V62.1328ZM54.4922 40.2188C51.7273 40.2188 51.0682 40.2188 48.0469 40.2188C47.3351 40.2188 46.7578 40.796 46.7578 41.5078C46.7578 42.2196 47.3351 42.7969 48.0469 42.7969H51.9141C53.3356 42.7969 54.4922 43.9534 54.4922 45.375C54.4922 46.7989 53.338 47.9531 51.9141 47.9531H45.4688C44.7569 47.9531 44.1797 48.5304 44.1797 49.2422C44.1797 49.954 44.7569 50.5312 45.4688 50.5312H49.3359C50.7406 50.5312 51.9141 51.6534 51.9141 53.1094C51.9141 54.5333 50.7598 55.6875 49.3359 55.6875C46.571 55.6875 45.9119 55.6875 42.8906 55.6875C42.1788 55.6875 41.6016 56.2647 41.6016 56.9766C41.6016 57.6884 42.1788 58.2656 42.8906 58.2656H46.7578C48.1794 58.2656 49.3359 59.4222 49.3359 60.8438C49.3359 62.2653 48.1794 63.4219 46.7578 63.4219H32.8952C27.1967 63.4219 24.971 62.8406 20.537 61.6827C19.8874 61.513 19.175 61.327 18.3984 61.129V37.386C27.7271 35.1639 39.0234 29.7401 39.0234 20.1094V18.8203C39.0234 17.3987 40.18 16.2422 41.6016 16.2422C43.0206 16.2422 44.177 17.3969 44.1797 18.8163V18.8203C44.1797 19.3805 44.8789 26.256 42.0752 32.4844H37.7344C37.0226 32.4844 36.4453 33.0616 36.4453 33.7734C36.4453 34.4853 37.0226 35.0625 37.7344 35.0625C38.6345 35.0625 53.0229 35.0625 54.4922 35.0625C55.9138 35.0625 57.0703 36.219 57.0703 37.6406C57.0703 39.0645 55.9161 40.2188 54.4922 40.2188Z" fill="#6E6E6E"/>
<path d="M11.9531 45.375C11.2413 45.375 10.6641 45.9522 10.6641 46.6641V56.9766C10.6641 57.6884 11.2413 58.2656 11.9531 58.2656C12.6649 58.2656 13.2422 57.6884 13.2422 56.9766V46.6641C13.2422 45.9522 12.6649 45.375 11.9531 45.375Z" fill="#6E6E6E"/>
<path d="M31.2891 16.2422H26.1328C25.421 16.2422 24.8438 16.8194 24.8438 17.5312C24.8438 18.2431 25.421 18.8203 26.1328 18.8203H31.2891C32.0009 18.8203 32.5781 18.2431 32.5781 17.5312C32.5781 16.8194 32.0009 16.2422 31.2891 16.2422Z" fill="#50AC58"/>
<path d="M57.0703 16.2422H51.9141C51.2022 16.2422 50.625 16.8194 50.625 17.5312C50.625 18.2431 51.2022 18.8203 51.9141 18.8203H57.0703C57.7821 18.8203 58.3594 18.2431 58.3594 17.5312C58.3594 16.8194 57.7821 16.2422 57.0703 16.2422Z" fill="#50AC58"/>
<path d="M53.4515 5.68206C52.948 5.17881 52.132 5.17881 51.6284 5.68206L47.983 9.3274C47.4796 9.83078 47.4796 10.647 47.983 11.1505C48.4866 11.6539 49.3025 11.6538 49.8061 11.1505L53.4515 7.50518C53.9549 7.00181 53.9549 6.18557 53.4515 5.68206Z" fill="#50AC58"/>
<path d="M35.221 9.3274L31.5757 5.68206C31.0721 5.17881 30.2562 5.17881 29.7525 5.68206C29.2492 6.18544 29.2492 7.00168 29.7525 7.50518L33.3979 11.1505C33.9016 11.6539 34.7175 11.6538 35.221 11.1505C35.7244 10.6471 35.7244 9.83091 35.221 9.3274Z" fill="#50AC58"/>
</svg>
