<svg width="27" height="22" viewBox="0 0 27 22" fill="none" xmlns="http://www.w3.org/2000/svg"><path d="M9.29743 16.6463H17.0632C17.1926 16.6463 17.2985 16.5404 17.2985 16.411V13.9401C17.2985 13.8107 17.1926 13.7048 17.0632 13.7048H15.8865C15.7571 13.7048 15.6512 13.8107 15.6512 13.9401V14.9991H10.7094V13.9401C10.7094 13.8107 10.6035 13.7048 10.4741 13.7048H9.29743C9.168 13.7048 9.06211 13.8107 9.06211 13.9401V16.411C9.06211 16.5404 9.168 16.6463 9.29743 16.6463zM19.2988 13.0282C19.2988 13.3403 19.4227 13.6396 19.6434 13.8602 19.8641 14.0809 20.1633 14.2048 20.4754 14.2048 20.7875 14.2048 21.0867 14.0809 21.3074 13.8602 21.5281 13.6396 21.652 13.3403 21.652 13.0282 21.652 12.7162 21.5281 12.4169 21.3074 12.1962 21.0867 11.9755 20.7875 11.8516 20.4754 11.8516 20.1633 11.8516 19.8641 11.9755 19.6434 12.1962 19.4227 12.4169 19.2988 12.7162 19.2988 13.0282zM26.3291 8.09814 25.632 6.88033C25.6006 6.82665 25.5493 6.78754 25.4892 6.77156 25.4292 6.75558 25.3652 6.76401 25.3113 6.79503L23.82 7.66573 21.5167 1.30606C21.3951.926578 21.156.595563 20.8341.360807 20.5121.126051 20.1238-299068e-9 19.7253 531577e-12H6.97948C5.95875 531577e-12 5.05275.658912 4.738 1.63257L2.54359 7.66867 1.04927 6.79797C.995397 6.76696.931439 6.75852.871365 6.7745.811291 6.79048.759982 6.82959.728641 6.88327L.0314891 8.09814C-.0332254 8.20992.00501504 8.35112.116795 8.41583L1.8935 9.45126 1.46698 10.6279C1.43168 10.722 1.41403 10.822 1.41403 10.922V21.1646C1.41403 21.6264 1.76113 22 2.18766 22H4.17616C4.53797 22 4.85272 21.7264 4.9292 21.344L5.1557 20.2351H21.2049L21.4314 21.344C21.5108 21.7264 21.8226 22 22.1844 22H24.1729C24.5995 22 24.9466 21.6264 24.9466 21.1646V10.922C24.9466 10.822 24.9289 10.722 24.8936 10.6279L24.4671 9.45126 26.2409 8.41583C26.2943 8.385 26.3334 8.33444 26.3499 8.27503 26.3664 8.21561 26.359 8.1521 26.3291 8.09814zM22.8287 11.1456V18.1171H3.53196V11.1456L3.99084 9.88073H22.3698L22.8287 11.1456zM6.72944 2.35326 6.74415 2.31502 6.75592 2.27678C6.78827 2.1797 6.87652 2.11499 6.97948 2.11499H19.5576L21.7756 8.23345H4.59092L6.72944 2.35326zM4.70858 13.0282C4.70858 13.3403 4.83255 13.6396 5.05321 13.8602 5.27387 14.0809 5.57315 14.2048 5.88521 14.2048 6.19727 14.2048 6.49655 14.0809 6.71721 13.8602 6.93787 13.6396 7.06184 13.3403 7.06184 13.0282 7.06184 12.7162 6.93787 12.4169 6.71721 12.1962 6.49655 11.9755 6.19727 11.8516 5.88521 11.8516 5.57315 11.8516 5.27387 11.9755 5.05321 12.1962 4.83255 12.4169 4.70858 12.7162 4.70858 13.0282z" fill="#222427"/></svg>