<svg width="20" height="21" viewBox="0 0 20 21" fill="none" xmlns="http://www.w3.org/2000/svg">
<path d="M4.99938 7.33333V6.27778C4.99938 4.87802 5.52623 3.5356 6.46403 2.54583C7.40183 1.55605 8.67375 1 10 1C11.3262 1 12.5982 1.55605 13.536 2.54583C14.4738 3.5356 15.0006 4.87802 15.0006 6.27778V7.33333M17.1069 7.33333H2.89312C2.61857 7.3335 2.34733 7.39666 2.0982 7.51844C1.84907 7.64021 1.628 7.81768 1.4503 8.03857C1.27259 8.25945 1.14251 8.51847 1.06905 8.79767C0.995599 9.07687 0.980529 9.3696 1.02489 9.65556L2.39906 18.3301C2.47284 18.7964 2.7008 19.22 3.04246 19.5257C3.38412 19.8314 3.81737 19.9995 4.26529 20H15.7387C16.1859 19.9985 16.6182 19.83 16.9591 19.5244C17.2999 19.2187 17.5273 18.7957 17.6009 18.3301L18.9751 9.65556C19.0195 9.3696 19.0044 9.07687 18.9309 8.79767C18.8575 8.51847 18.7274 8.25945 18.5497 8.03857C18.372 7.81768 18.1509 7.64021 17.9018 7.51844C17.6527 7.39666 17.3814 7.3335 17.1069 7.33333V7.33333Z" stroke="white" stroke-width="1.5" stroke-linecap="round" stroke-linejoin="round"/>
</svg>
