<svg width="16" height="16" viewBox="0 0 16 16" fill="none" xmlns="http://www.w3.org/2000/svg"><circle cx="8" cy="8" r="8" fill="#50ac58"/><path d="M10.1551 4.96785C10.2808 4.84685 10.4364 4.78811 10.5932 4.8024 10.75 4.8167 10.8975 4.90308 11.0087 5.04568 11.1198 5.18828 11.1872 5.37754 11.1983 5.5787 11.2095 5.77986 11.1637 5.97943 11.0693 6.14077L7.69454 10.9608C7.57246 11.1143 7.40834 11.2003 7.2374 11.2003 7.06646 11.2003 6.90233 11.1143 6.78025 10.9608L4.93056 9.07847C4.83624 8.91714 4.79045 8.71757 4.80159 8.5164 4.81274 8.31524 4.88007 8.12599 4.99123 7.98338 5.10239 7.84078 5.24991 7.7544 5.40672 7.74011 5.56352 7.72581 5.71909 7.78456 5.84485 7.90556L7.2374 9.19305 10.1551 4.95947V4.96785z" fill="#fff"/></svg>