<svg width="6" height="10" viewBox="0 0 6 10" fill="none" xmlns="http://www.w3.org/2000/svg"><path d="M.20388 1.63265C.0566497 1.43615-.0148291 1.19308.00256588.948074.0199609.703064.125062.472557.298574.298872.472086.125187.702364.0199808.94713.00256847 1.1919-.0148438 1.43472.0567066 1.63103.204083L5.7086 4.28571C5.89538 4.47646 6 4.73291 6 5 6 5.26709 5.89538 5.52354 5.7086 5.71429L1.63103 9.79592C1.43472 9.94329 1.1919 10.0148.947129 9.99743.702363 9.98002.472085 9.87481.298573 9.70113.125061 9.52744.0199604 9.29694.00256539 9.05193-.0148296 8.80692.0566492 8.56385.203879 8.36735L3.55768 5 .193685 1.63265H.20388z" fill="#fff"/></svg>