<svg width="8" height="5" viewBox="0 0 8 5" fill="none" xmlns="http://www.w3.org/2000/svg"><path d="M6.69388.163104C6.85108.0453197 7.04553-.0118633 7.24154.00205267 7.43755.0159687 7.62195.100049 7.7609.238859 7.89985.377669 7.98402.561891 7.99795.757704 8.01188.953517 7.95463 1.14778 7.83673 1.30482L4.57143 4.56688C4.41883 4.7163 4.21368 4.8 4 4.8 3.78632 4.8 3.58117 4.7163 3.42857 4.56688L.163266 1.30482C.0453643 1.14778-.0118742.953516.00205514.757703.015985.56189.100149.377668.239097.238858.378045.100048.562451.015968.758459.002052.954467-.011864 1.14892.0453191 1.30612.163103L4 2.84615 6.69388.154948V.163104z" fill="#6e6e6e"/></svg>