<svg width="10" height="10" viewBox="0 0 10 10" fill="none" xmlns="http://www.w3.org/2000/svg"><path d="M8.36735.20388C8.56385.0566496 8.80692-.0148291 9.05193.00256585 9.29694.0199609 9.52744.125062 9.70113.298574 9.87481.472086 9.98002.702364 9.99743.94713 10.0148 1.1919 9.94329 1.43472 9.79592 1.63103L5.71429 5.7086C5.52354 5.89538 5.26709 6 5 6 4.73291 6 4.47646 5.89538 4.28571 5.7086L.204081 1.63103C.0567054 1.43472-.014844 1.1919.00256822.947129.0199814.702363.125186.472085.298871.298573.472556.125061.703064.0199601.948073.00256518 1.19308-.0148298 1.43615.056649 1.63265.203879L5 3.55768 8.36735.193685V.20388z" fill="#6f6f6f"/><path d="M1.63265 9.79612C1.43615 9.94335 1.19308 10.0148.948074 9.99743.703064 9.98004.472557 9.87494.298872 9.70143.125187 9.52791.0199808 9.29764.00256849 9.05287-.0148438 8.8081.0567067 8.56528.204083 8.36897L4.28571 4.2914C4.47646 4.10462 4.73291 4 5 4 5.26709 4 5.52354 4.10462 5.71429 4.2914L9.79592 8.36897C9.94329 8.56528 10.0148 8.8081 9.99743 9.05287 9.98002 9.29764 9.87481 9.52791 9.70113 9.70143 9.52744 9.87494 9.29694 9.98004 9.05193 9.99743 8.80692 10.0148 8.56385 9.94335 8.36735 9.79612L5 6.44232 1.63265 9.80631V9.79612z" fill="#6f6f6f"/></svg>