<svg width="16" height="16" viewBox="0 0 16 16" fill="none" xmlns="http://www.w3.org/2000/svg"><path d="M8 0C3.58214.0.0 3.58214.0 8 0 12.4179 3.58214 16 8 16 12.4179 16 16 12.4179 16 8 16 3.58214 12.4179.0 8 0zM8 14.6429C4.33214 14.6429 1.35714 11.6679 1.35714 8 1.35714 4.33214 4.33214 1.35714 8 1.35714 11.6679 1.35714 14.6429 4.33214 14.6429 8 14.6429 11.6679 11.6679 14.6429 8 14.6429z" fill="#6e6e6e"/><path d="M8.00004 1.35706C4.33218 1.35706 1.35718 4.33206 1.35718 7.99991 1.35718 11.6678 4.33218 14.6428 8.00004 14.6428 11.6679 14.6428 14.6429 11.6678 14.6429 7.99991 14.6429 4.33206 11.6679 1.35706 8.00004 1.35706z" fill="#6e6e6e" fill-opacity=".1"/><path d="M10.0204 5.12233C10.1383 5.03399 10.2842 4.9911 10.4312 5.00154 10.5782 5.01198 10.7165 5.07504 10.8207 5.17914 10.9249 5.28325 10.988 5.42142 10.9985 5.56828 11.0089 5.71514 10.966 5.86083 10.8776 5.97862L8.42857 8.42516C8.31412 8.53723 8.16026 8.6 8 8.6 7.83974 8.6 7.68587 8.53723 7.57143 8.42516L5.12245 5.97862C5.03402 5.86083 4.99109 5.71514 5.00154 5.56828 5.01199 5.42142 5.07511 5.28325 5.17932 5.17914 5.28353 5.07504 5.42184 5.01198 5.56884 5.00154 5.71585 4.9911 5.86169 5.03399 5.97959 5.12233L8 7.13461 10.0204 5.11621V5.12233z" fill="#6e6e6e"/><path d="M5.97959 10.8777C5.86169 10.966 5.71585 11.0089 5.56884 10.9985 5.42184 10.988 5.28353 10.925 5.17932 10.8209 5.07511 10.7167 5.01199 10.5786 5.00154 10.4317 4.99109 10.2849 5.03402 10.1392 5.12245 10.0214L7.57143 7.57484C7.68588 7.46277 7.83974 7.4 8 7.4 8.16026 7.4 8.31413 7.46277 8.42857 7.57484L10.8776 10.0214C10.966 10.1392 11.0089 10.2849 10.9985 10.4317 10.988 10.5786 10.9249 10.7167 10.8207 10.8209 10.7165 10.925 10.5782 10.988 10.4312 10.9985 10.2842 11.0089 10.1383 10.966 10.0204 10.8777L8 8.86539 5.97959 10.8838V10.8777z" fill="#6e6e6e"/></svg>