<svg width="40" height="40" viewBox="0 0 40 40" fill="none" xmlns="http://www.w3.org/2000/svg"><path d="M37.7921 70689e-12H2.20612C.987549 610422e-9-305105e-9.989075 70689e-12 2.20795V37.7939C610422e-9 39.0125.989075 40.0003 2.20795 40H37.7921C39.0112 40.0003 39.9997 39.0121 40 37.793 40 37.7927 40 37.7924 40 37.7921V2.20612C39.9994.987549 39.0109-305105e-9 37.7921 70689e-12z" fill="#4267b2"/><path d="M27.6172 40.0001V24.5313H32.832L33.6133 18.4766H27.6172V14.6204C27.6172 12.8715 28.1027 11.6797 30.6107 11.6797H33.7891V6.27905C33.2361 6.20551 31.3388 6.04102 29.1312 6.04102 24.5218 6.04102 21.3672 8.85352 21.3672 14.0208V18.4766H16.1719v6.0547h5.1953V40.0001h6.25z" fill="#fff"/></svg>