<svg width="12" height="12" viewBox="0 0 12 12" fill="none" xmlns="http://www.w3.org/2000/svg">
<path fill-rule="evenodd" clip-rule="evenodd" d="M5.58942 0.170067C5.81618 -0.056689 6.18382 -0.056689 6.41058 0.170067L11.8299 5.58942C12.0567 5.81618 12.0567 6.18382 11.8299 6.41058C11.6032 6.63733 11.2355 6.63733 11.0088 6.41058L10.7957 6.1975V10.8172C10.7957 11.1309 10.6711 11.4317 10.4493 11.6536C10.2274 11.8754 9.9266 12 9.6129 12H2.3871C2.0734 12 1.77255 11.8754 1.55073 11.6536C1.32892 11.4318 1.2043 11.1309 1.2043 10.8172V6.1975L0.991223 6.41058C0.764467 6.63733 0.396823 6.63733 0.170067 6.41058C-0.056689 6.18382 -0.056689 5.81618 0.170067 5.58942L5.58942 0.170067ZM2.36559 5.03621V10.8172C2.36559 10.8229 2.36786 10.8284 2.37189 10.8324C2.37592 10.8364 2.38139 10.8387 2.3871 10.8387H4.19355C4.19925 10.8387 4.20472 10.8364 4.20875 10.8324C4.21279 10.8284 4.21505 10.8229 4.21505 10.8172V8.4086C4.21505 8.0949 4.33967 7.79406 4.56149 7.57224C4.7833 7.35042 5.08415 7.22581 5.39785 7.22581H6.60215C6.91585 7.22581 7.2167 7.35042 7.43851 7.57224C7.66033 7.79406 7.78495 8.0949 7.78495 8.4086V10.8172C7.78495 10.8229 7.78721 10.8284 7.79125 10.8324C7.79528 10.8364 7.80075 10.8387 7.80645 10.8387H9.6129C9.61861 10.8387 9.62408 10.8364 9.62811 10.8324C9.63214 10.8284 9.63441 10.8229 9.63441 10.8172V5.03621L6 1.4018L2.36559 5.03621ZM6.62385 10.8387C6.62372 10.8315 6.62366 10.8244 6.62366 10.8172V8.4086C6.62366 8.4029 6.62139 8.39743 6.61736 8.3934C6.61332 8.38936 6.60785 8.3871 6.60215 8.3871H5.39785C5.39215 8.3871 5.38668 8.38936 5.38264 8.3934C5.37861 8.39743 5.37634 8.4029 5.37634 8.4086V10.8172C5.37634 10.8244 5.37628 10.8315 5.37615 10.8387H6.62385Z" fill="#6F6F6F"/>
</svg>
