<svg width="40" height="40" viewBox="0 0 40 40" fill="none" xmlns="http://www.w3.org/2000/svg"><path d="M39.8798 11.7542C39.7824 9.62524 39.4443 8.17139 38.9499 6.89941 38.4479 5.56488 37.6605 4.35608 36.6431 3.35693 35.6442 2.33948 34.4351 1.55182 33.1006 1.0495 31.8283.55542 30.3748.21759 28.2458.12085 26.113.0231934 25.4315.0 20 0 14.5685.0 13.887.0231934 11.7542.120239 9.62524.21759 8.17169.555725 6.89941 1.05011 5.56488 1.55212 4.35608 2.33948 3.35693 3.35693 2.33948 4.35577 1.55182 5.56458 1.0495 6.89911.55542 8.17139.21759 9.62524.12085 11.7538.0231934 13.887.0 14.5682.0 19.9997.0 25.4315.0231934 26.113.12085 28.2458.217895 30.3745.55603 31.8283 1.05041 33.1006 1.55243 34.4348 2.33978 35.6439 3.35724 36.6428 4.35608 37.6602 5.56519 38.4476 6.89972 38.9496 8.17169 39.4443 9.62555 39.7821 11.7545 39.8795 13.8876 39.9768 14.5688 39.9997 20.0003 39.9997 25.4318 39.9997 26.1133 39.9768 28.2462 39.8795 30.3751 39.7821 31.8286 39.4443 33.1009 38.9496 35.7874 37.9108 37.9111 35.787 38.9499 33.1006 39.4446 31.8283 39.7824 30.3745 39.8798 28.2458 39.9768 26.1127 40 25.4315 40 20 40 14.5682 39.9768 13.887 39.8798 11.7542zM36.2796 28.082C36.1908 30.032 35.8649 31.091 35.5911 31.7957 34.9182 33.54 33.5397 34.9185 31.7953 35.5914 31.0907 35.8652 30.0317 36.1911 28.0817 36.2799 25.9732 36.3763 25.3406 36.3965 20 36.3965 14.6591 36.3965 14.0268 36.3763 11.918 36.2799 9.96826 36.1911 8.9093 35.8652 8.20435 35.5914 7.33582 35.2707 6.54999 34.7595 5.90485 34.0952 5.24048 33.45 4.72931 32.6645 4.40857 31.7957 4.13483 31.091 3.8089 30.032 3.72009 28.082 3.62396 25.9732 3.60352 25.3406 3.60352 20.0003 3.60352 14.6597 3.62396 14.0274 3.72009 11.9183 3.8092 9.96826 4.13483 8.9093 4.40857 8.20465 4.72931 7.33582 5.24078 6.54999 5.90485 5.90485 6.54999 5.24048 7.33582 4.72931 8.20465 4.40887 8.9093 4.13483 9.96826 3.8092 11.9183 3.72009 14.0271 3.62396 14.6597 3.60352 20 3.60352H19.9997C25.34 3.60352 25.9726 3.62396 28.0817 3.7204 30.0317 3.8092 31.0904 4.13513 31.7953 4.40887 32.6639 4.72961 33.4497 5.24078 34.0948 5.90485 34.7592 6.54999 35.2704 7.33582 35.5908 8.20465 35.8649 8.9093 36.1908 9.96826 36.2796 11.9183 36.3757 14.0271 36.3962 14.6597 36.3962 20 36.3962 25.3406 36.376 25.9729 36.2796 28.082z" fill="url(#paint0_linear)"/><path d="M19.9996 9.72949C14.3276 9.72949 9.72949 14.3279 9.72949 19.9999 9.72949 25.6719 14.3276 30.27 19.9996 30.27 25.6719 30.27 30.27 25.6719 30.27 19.9999 30.27 14.3279 25.6719 9.72949 19.9996 9.72949zM19.9996 26.6664C16.3179 26.6661 13.333 23.6815 13.3333 19.9996 13.3333 16.3179 16.3179 13.333 19.9999 13.333 23.6818 13.3333 26.6664 16.3179 26.6664 19.9996 26.6664 23.6815 23.6815 26.6664 19.9996 26.6664z" fill="url(#paint1_linear)"/><path d="M33.076 9.32404C33.076 10.6494 32.0015 11.7239 30.6761 11.7239 29.3504 11.7239 28.2759 10.6494 28.2759 9.32404 28.2759 7.99835 29.3504 6.92383 30.6761 6.92383 32.0015 6.92383 33.076 7.99835 33.076 9.32404z" fill="url(#paint2_linear)"/><defs><linearGradient id="paint0_linear" x1="3.35673" y1="36.6429" x2="36.6433" y2="3.35641" gradientUnits="userSpaceOnUse"><stop stop-color="#ffd600"/><stop offset=".5" stop-color="#ff0100"/><stop offset="1" stop-color="#d800b9"/></linearGradient><linearGradient id="paint1_linear" x1="12.7376" y1="27.2619" x2="27.2619" y2="12.7376" gradientUnits="userSpaceOnUse"><stop stop-color="#ff6400"/><stop offset=".5" stop-color="#ff0100"/><stop offset="1" stop-color="#fd0056"/></linearGradient><linearGradient id="paint2_linear" x1="28.979" y1="11.0209" x2="32.373" y2="7.62688" gradientUnits="userSpaceOnUse"><stop stop-color="#f30072"/><stop offset="1" stop-color="#e50097"/></linearGradient></defs></svg>