<svg width="26" height="20" viewBox="0 0 26 20" fill="none" xmlns="http://www.w3.org/2000/svg"><path d="M24.5455.0H.909091C.40625.0.0.40625.0.909091V19.0909C0 19.5938.40625 20 .909091 20H24.5455C25.0483 20 25.4545 19.5938 25.4545 19.0909V.909091C25.4545.40625 25.0483.0 24.5455.0zM23.4091 17.9545H2.04545V2.04545H23.4091V17.9545zM15.5199 8.97727H19.0256C19.0625 8.97727 19.0909 8.875 19.0909 8.75V7.38636C19.0909 7.26136 19.0625 7.15909 19.0256 7.15909H15.5199C15.483 7.15909 15.4545 7.26136 15.4545 7.38636V8.75C15.4545 8.875 15.483 8.97727 15.5199 8.97727zM15.6562 13.0682H20.9318C21.0426 13.0682 21.1335 12.9659 21.1335 12.8409V11.4773C21.1335 11.3523 21.0426 11.25 20.9318 11.25H15.6562C15.5455 11.25 15.4545 11.3523 15.4545 11.4773v1.3636C15.4545 12.9659 15.5455 13.0682 15.6562 13.0682zM4.54545 14.5739H5.79261C5.91193 14.5739 6.00852 14.4801 6.01705 14.3608 6.125 12.9261 7.32386 11.7898 8.77841 11.7898 10.233 11.7898 11.4318 12.9261 11.5398 14.3608 11.5483 14.4801 11.6449 14.5739 11.7642 14.5739H13.0114C13.0422 14.5739 13.0727 14.5677 13.101 14.5555 13.1294 14.5434 13.155 14.5257 13.1762 14.5033 13.1975 14.481 13.214 14.4546 13.2247 14.4257 13.2354 14.3968 13.2402 14.366 13.2386 14.3352 13.1591 12.821 12.3295 11.5028 11.1193 10.7528 11.653 10.1662 11.9479 9.40106 11.946 8.60795 11.946 6.84943 10.5284 5.42614 8.78125 5.42614 7.03409 5.42614 5.61648 6.84943 5.61648 8.60795 5.61648 9.43466 5.92898 10.1847 6.44318 10.7528 5.82707 11.1346 5.31252 11.6599 4.94347 12.2837 4.57441 12.9075 4.36183 13.6114 4.32386 14.3352 4.3125 14.4659 4.41477 14.5739 4.54545 14.5739zM8.77841 7.13068C9.58807 7.13068 10.2472 7.79261 10.2472 8.60795 10.2472 9.4233 9.58807 10.0852 8.77841 10.0852 7.96875 10.0852 7.30966 9.4233 7.30966 8.60795 7.30966 7.79261 7.96875 7.13068 8.77841 7.13068z" fill="#222427"/></svg>