<svg width="24" height="24" viewBox="0 0 24 24" fill="none" xmlns="http://www.w3.org/2000/svg"><path d="M13.248 15.228 14.532 12.66C14.6611 12.4048 14.8772 12.2041 15.1412 12.0941 15.4052 11.9841 15.6999 11.972 15.972 12.06L23.172 14.46C23.4126 14.5384 23.6222 14.6909 23.7709 14.8957 23.9196 15.1004 23.9998 15.3469 24 15.6V21.6C24 22.2365 23.7471 22.847 23.2971 23.2971 22.847 23.7471 22.2365 24 21.6 24H19.2c-5.0922.0-9.97575-2.0229-13.57645-5.6236C2.02285 14.7758.0 9.89216.0 4.8V2.4C.00184679 1.76405.255296 1.15468.704984.704988 1.15467.2553 1.76405.00185079 2.4 400025e-11h6C8.65157-645394e-9 8.89699.0777866 9.10155.224214 9.30612.370642 9.4595.577659 9.54.816004L11.94 8.016C12.0313 8.28973 12.0208 8.58717 11.9107 8.85384 11.8005 9.12051 11.5979 9.33855 11.34 9.468L8.76 10.752C9.82684 12.6159 11.3721 14.1612 13.236 15.228H13.248zM7.536 2.4H2.4V4.8c0 4.45564 1.77 8.7288 4.92061 11.8794C10.4712 19.83 14.7444 21.6 19.2 21.6H21.6V16.464L16.2 14.664 14.856 17.376C14.7165 17.6507 14.4768 17.8611 14.1864 17.9639 13.896 18.0667 13.5772 18.0538 13.296 17.928 10.0907 16.4831 7.52226 13.9189 6.072 10.716 5.9462 10.4348 5.93335 10.116 6.0361 9.82564 6.13886 9.53524 6.34935 9.29548 6.624 9.156L9.336 7.788 7.536 2.4z" fill="#6e6e6e"/></svg>