<svg width="16" height="16" viewBox="0 0 16 16" fill="none" xmlns="http://www.w3.org/2000/svg"><path d="M8.832 10.152 9.688 8.44C9.77409 8.26986 9.91812 8.13606 10.0941 8.06272 10.2701 7.98938 10.4666 7.98133 10.648 8.04L15.448 9.64C15.6084 9.6923 15.7481 9.79396 15.8473 9.93046 15.9464 10.067 15.9999 10.2313 16 10.4v4C16 14.8243 15.8314 15.2313 15.5314 15.5314 15.2313 15.8314 14.8243 16 14.4 16H12.8C9.40523 16 6.1495 14.6514 3.74903 12.251 1.34857 9.8505.0 6.59477.0 3.2V1.6C.00123119 1.17603.170197.769783.469989.469992.769781.1702 1.17603.00123386 1.6 266683e-11H5.6C5.76771-430263e-9 5.93132.0518578 6.0677.149476 6.20408.247095 6.30633.385106 6.36.544003L7.96 5.344C8.02084 5.52649 8.0139 5.72478 7.94043 5.90256 7.86697 6.08034 7.73191 6.2257 7.56 6.312L5.84 7.168C6.55123 8.41062 7.58138 9.44077 8.824 10.152H8.832zM5.024 1.6H1.6V3.2C1.6 6.17043 2.78 9.01919 4.8804 11.1196 6.98081 13.22 9.82958 14.4 12.8 14.4H14.4V10.976L10.8 9.776 9.904 11.584C9.81101 11.7671 9.65117 11.9074 9.45758 11.9759 9.26398 12.0444 9.05145 12.0359 8.864 11.952 6.72713 10.9887 5.01484 9.27927 4.048 7.144 3.96413 6.95655 3.95556 6.74402 4.02407 6.55043 4.09257 6.35683 4.2329 6.19699 4.416 6.104L6.224 5.192 5.024 1.6z" fill="#222427"/></svg>