<svg width="16" height="16" viewBox="0 0 16 16" fill="none" xmlns="http://www.w3.org/2000/svg"><path d="M14.823 2.66663C14.823 3.86328 13.853 4.83337 12.6564 4.83337 11.4597 4.83337 10.4897 3.86328 10.4897 2.66663 10.4897 1.47009 11.4597.5 12.6564.5 13.853.5 14.823 1.47009 14.823 2.66663z" fill="#6e6e6e"/><path d="M12.6564 5.33337C11.1857 5.33337 9.98975 4.13733 9.98975 2.66663 9.98975 1.19604 11.1857.0 12.6564.0 14.1271.0 15.323 1.19604 15.323 2.66663 15.323 4.13733 14.1271 5.33337 12.6564 5.33337zM12.6564 1C11.7371 1 10.9897 1.74805 10.9897 2.66663 10.9897 3.58533 11.7371 4.33337 12.6564 4.33337 13.5757 4.33337 14.323 3.58533 14.323 2.66663 14.323 1.74805 13.5757 1 12.6564 1z" fill="#6e6e6e"/><path d="M14.823 13.3334C14.823 14.5299 13.853 15.5 12.6564 15.5 11.4597 15.5 10.4897 14.5299 10.4897 13.3334 10.4897 12.1367 11.4597 11.1667 12.6564 11.1667 13.853 11.1667 14.823 12.1367 14.823 13.3334z" fill="#6e6e6e"/><path d="M12.6564 16C11.1857 16 9.98975 14.804 9.98975 13.3334 9.98975 11.8627 11.1857 10.6667 12.6564 10.6667 14.1271 10.6667 15.323 11.8627 15.323 13.3334 15.323 14.804 14.1271 16 12.6564 16zM12.6564 11.6667C11.7371 11.6667 10.9897 12.4147 10.9897 13.3334 10.9897 14.252 11.7371 15 12.6564 15 13.5757 15 14.323 14.252 14.323 13.3334 14.323 12.4147 13.5757 11.6667 12.6564 11.6667z" fill="#6e6e6e"/><path d="M5.48962 7.99997C5.48962 9.19662 4.51953 10.1666 3.32288 10.1666 2.12634 10.1666 1.15625 9.19662 1.15625 7.99997 1.15625 6.80331 2.12634 5.83334 3.32288 5.83334 4.51953 5.83334 5.48962 6.80331 5.48962 7.99997z" fill="#6e6e6e"/><path d="M3.32288 10.6666C1.85229 10.6666.65625 9.47067.65625 7.99997.65625 6.52927 1.85229 5.33334 3.32288 5.33334 4.79358 5.33334 5.98962 6.52927 5.98962 7.99997 5.98962 9.47067 4.79358 10.6666 3.32288 10.6666zM3.32288 6.33334C2.40356 6.33334 1.65625 7.08127 1.65625 7.99997 1.65625 8.91867 2.40356 9.6666 3.32288 9.6666 4.24231 9.6666 4.98962 8.91867 4.98962 7.99997 4.98962 7.08127 4.24231 6.33334 3.32288 6.33334z" fill="#6e6e6e"/><path d="M4.89682 7.68C4.66477 7.68 4.43943 7.55927 4.31675 7.34333 4.13474 7.02399 4.2468 6.61665 4.56614 6.43391L10.752 2.90729C11.0714 2.72395 11.4787 2.83601 11.6615 3.15656 11.8435 3.4759 11.7314 3.88325 11.4121 4.06599L5.22605 7.5926C5.12204 7.65192 5.00876 7.68 4.89682 7.68z" fill="#6e6e6e"/><path d="M11.0824 13.1801C10.9703 13.1801 10.8571 13.152 10.753 13.0927L4.56702 9.56607C4.24768 9.38406 4.13575 8.97671 4.31775 8.65665 4.49903 8.3367 4.90699 8.22403 5.22705 8.40738L11.4131 11.934C11.7324 12.116 11.8444 12.5234 11.6624 12.8434 11.5391 13.0594 11.3137 13.1801 11.0824 13.1801z" fill="#6e6e6e"/></svg>