<svg width="22" height="14" viewBox="0 0 22 14" fill="none" xmlns="http://www.w3.org/2000/svg"><path d="M11 .442993C6.79667.442993 2.98486 2.74268.172139 6.47797-.0573796 6.784-.0573796 7.21153.172139 7.51756 2.98486 11.2574 6.79667 13.557 11 13.557 15.2033 13.557 19.0151 11.2574 21.8279 7.52205 22.0574 7.21603 22.0574 6.7885 21.8279 6.48247 19.0151 2.74268 15.2033.442993 11 .442993zM11.3015 11.6174C8.5113 11.7929 6.20712 9.49321 6.38263 6.69849 6.52664 4.39431 8.39429 2.52666 10.6985 2.38265 13.4887 2.20713 15.7929 4.50682 15.6174 7.30154 15.4689 9.60122 13.6012 11.4689 11.3015 11.6174zM11.162 9.48421C9.65889 9.57872 8.41679 8.34112 8.5158 6.838 8.59231 5.5959 9.60039 4.59232 10.8425 4.51132 12.3456 4.41681 13.5877 5.65441 13.4887 7.15753 13.4077 8.40413 12.3996 9.40771 11.162 9.48421z" fill="#6e6e6e"/></svg>