<svg width="21" height="24" viewBox="0 0 21 24" fill="none" xmlns="http://www.w3.org/2000/svg"><path d="M15.1927 6.49541V5.17431C15.1927 5.05321 15.0936 4.95413 14.9725 4.95413H4.40367C4.28257 4.95413 4.18349 5.05321 4.18349 5.17431V6.49541C4.18349 6.61651 4.28257 6.7156 4.40367 6.7156H14.9725C15.0936 6.7156 15.1927 6.61651 15.1927 6.49541zM4.40367 8.91743C4.28257 8.91743 4.18349 9.01651 4.18349 9.13762V10.4587C4.18349 10.5798 4.28257 10.6789 4.40367 10.6789H9.46789C9.58899 10.6789 9.68807 10.5798 9.68807 10.4587V9.13762C9.68807 9.01651 9.58899 8.91743 9.46789 8.91743H4.40367zM14.7523 12.1101C11.4688 12.1101 8.80734 14.7716 8.80734 18.055c0 3.2835 2.66146 5.945 5.94496 5.945C18.0358 24 20.6972 21.3385 20.6972 18.055 20.6972 14.7716 18.0358 12.1101 14.7523 12.1101zM17.711 21.0138C16.9211 21.8037 15.8697 22.2385 14.7523 22.2385 13.6349 22.2385 12.5835 21.8037 11.7936 21.0138 11.0037 20.2239 10.5688 19.1725 10.5688 18.055 10.5688 16.9376 11.0037 15.8862 11.7936 15.0963 12.5835 14.3064 13.6349 13.8716 14.7523 13.8716 15.8697 13.8716 16.9211 14.3064 17.711 15.0963 18.5009 15.8862 18.9358 16.9376 18.9358 18.055 18.9358 19.1725 18.5009 20.2239 17.711 21.0138zM17.2018 15.9633H15.9826C15.911 15.9633 15.845 15.9963 15.8037 16.0541L14.056 18.4706 13.4202 17.5927C13.3998 17.5643 13.3729 17.5412 13.3418 17.5254 13.3107 17.5096 13.2762 17.5015 13.2413 17.5018H12.0275C11.8486 17.5018 11.744 17.7055 11.8486 17.8514L13.8798 20.6615C13.9679 20.7826 14.1468 20.7826 14.2349 20.6615L17.378 16.3128C17.4853 16.167 17.3807 15.9633 17.2018 15.9633zM8.36697 21.3578H1.98165V1.98165H17.3945V11.4495C17.3945 11.5706 17.4936 11.6697 17.6147 11.6697H19.156C19.2771 11.6697 19.3761 11.5706 19.3761 11.4495V.880734C19.3761.393578 18.9826.0 18.4954.0H.880734C.393578.0.0.393578.0.880734V22.4587C0 22.9459.393578 23.3395.880734 23.3395H8.36697C8.48807 23.3395 8.58716 23.2404 8.58716 23.1193V21.578C8.58716 21.4569 8.48807 21.3578 8.36697 21.3578z" fill="#222427"/></svg>