<svg width="53" height="60" viewBox="0 0 53 60" fill="none" xmlns="http://www.w3.org/2000/svg">
<path d="M27.0971 47.6029C27.4354 47.7204 27.7332 47.9358 28.0604 48.0815L47.3733 56.6786C50.0187 57.8562 53 55.92 53 53.0243V4C53 1.79086 51.2091 0 49 0H4C1.79086 0 0 1.79086 0 4V53.0243C0 55.92 2.98133 57.8562 5.62671 56.6786L24.9377 48.0823C25.2661 47.9361 25.565 47.7196 25.9048 47.6021C26.0905 47.5379 26.2931 47.5037 26.5 47.5037C26.7077 47.5037 26.9109 47.5382 27.0971 47.6029Z" fill="#D31217"/>
<rect width="53" height="22.9667" fill="#D31217"/>
</svg>
