<svg width="88" height="112" viewBox="0 0 88 112" fill="none" xmlns="http://www.w3.org/2000/svg"><path fill-rule="evenodd" clip-rule="evenodd" d="M44 5C38.3758 5 32.9806 7.24013 29.0016 11.2298 25.0224 15.2196 22.7857 20.6324 22.7857 26.2778 22.7857 31.9232 25.0224 37.336 29.0016 41.3258 32.9806 45.3154 38.3758 47.5556 44 47.5556 49.6242 47.5556 55.0194 45.3154 58.9984 41.3258 62.9776 37.336 65.2143 31.9231 65.2143 26.2778 65.2143 20.6324 62.9776 15.2196 58.9984 11.2298 55.0194 7.24013 49.6242 5 44 5zM25.4613 7.69895C30.377 2.77017 37.0454.0 44 0 50.9546.0 57.623 2.77017 62.5387 7.69895 67.454 12.6275 70.2143 19.3106 70.2143 26.2778 70.2143 33.2449 67.454 39.9281 62.5387 44.8566 57.623 49.7854 50.9546 52.5556 44 52.5556 37.0454 52.5556 30.377 49.7854 25.4613 44.8566 20.5459 39.9281 17.7857 33.2449 17.7857 26.2778 17.7857 19.3106 20.5459 12.6275 25.4613 7.69895zM12.8849 78.3111C21.136 70.0379 32.3283 65.3889 44 65.3889 55.6717 65.3889 66.864 70.0379 75.1151 78.3111 83.3659 86.584 88 97.8032 88 109.5 88 110.881 86.8807 112 85.5 112H2.5C1.83696 112 1.20107 111.737.732233 111.268.263392 110.799.0 110.163.0 109.5.0 97.8032 4.63408 86.584 12.8849 78.3111zM44 70.3889C33.6587 70.3889 23.7396 74.5079 16.4252 81.8419 9.70028 88.5848 5.68365 97.5377 5.07968 107H82.9203C82.3164 97.5377 78.2997 88.5848 71.5748 81.8419 64.2604 74.5079 54.3413 70.3889 44 70.3889z" fill="#222427"/></svg>