<svg width="40" height="29" viewBox="0 0 40 29" fill="none" xmlns="http://www.w3.org/2000/svg"><path d="M39.1759 4.39793C38.7147 2.68438 37.3637 1.33367 35.6505.87225 32.5203.015625 19.9996.015625 19.9996.015625 19.9996.015625 7.47922.015625 4.34904.839596 2.66875 1.30071 1.28478 2.68468.823666 4.39793.0 7.5278.0 14.0189.0 14.0189c0 0 0 6.5237.823666 9.6209C1.28509 25.353 2.63579 26.7041 4.34935 27.1655 7.51218 28.0221 19.9999 28.0221 19.9999 28.0221 19.9999 28.0221 32.5203 28.0221 35.6505 27.1981 37.364 26.737 38.7147 25.386 39.1762 23.6728 39.9998 20.5426 39.9998 14.0518 39.9998 14.0518 39.9998 14.0518 40.0328 7.5278 39.1759 4.39793z" fill="red"/><path d="M16.0132 20.0156 26.4249 14.0189 16.0132 8.02222V20.0156z" fill="#fff"/></svg>